<?xml version="1.0" encoding="utf-8"?>
<!-- Generator: Adobe Illustrator 13.0.0, SVG Export Plug-In . SVG Version: 6.00 Build 14948)  -->
<!DOCTYPE svg PUBLIC "-//W3C//DTD SVG 1.1//EN" "http://www.w3.org/Graphics/SVG/1.1/DTD/svg11.dtd">
<svg version="1.1" id="Calque_1" xmlns="http://www.w3.org/2000/svg" xmlns:xlink="http://www.w3.org/1999/xlink" x="0px" y="0px"
	 width="32px" height="32px" viewBox="0 0 32 32" enable-background="new 0 0 32 32" xml:space="preserve">
<g>
	<linearGradient id="SVGID_1_" gradientUnits="userSpaceOnUse" x1="5.0908" y1="16.8174" x2="23.0283" y2="16.8174">
		<stop  offset="0" style="stop-color:#1F1F1F"/>
		<stop  offset="1" style="stop-color:#C80000"/>
	</linearGradient>
	<path fill="url(#SVGID_1_)" d="M12.008,27.399c-0.265-1.403-3.141-0.26-4.489-0.733c-1.144-0.401-0.294-2.194,0.046-2.978
		c0.356-0.82,0.667-1.392,1.008-1.878c1.821-2.598,5.432-4.916,9.985-4.122c0.668,0.116,1.711,0.662,2.337,0.55
		c0.425-0.076,0.808-0.497,0.687-1.146c-0.087-0.469-0.522-0.619-1.008-0.779c1.797-1.312,3.062-4.086,2.153-6.917
		c-0.769-2.394-2.725-3.973-5.451-4.306c-0.306,0-0.61,0-0.916,0c-2.769,0.337-4.677,1.922-5.451,4.352
		c-0.835,2.621,0.169,4.971,1.558,6.367c0.182,0.183,0.517,0.259,0.55,0.55c-4.184,1.481-6.86,4.469-7.925,9.07
		c0,0.229,0,0.458,0,0.687c0.284,1.335,1.078,2.159,2.428,2.428c1.268,0,2.535,0,3.802,0C11.843,28.282,12.129,28.043,12.008,27.399
		z M12.42,11.046c0.09-1.372,0.622-2.101,1.237-2.749c0.655-0.69,1.46-1.186,2.703-1.329c2.648-0.305,5.056,1.777,4.855,4.626
		c-0.177,2.523-2.293,4.222-4.581,4.123C14.52,15.626,12.231,13.918,12.42,11.046z"/>
	<linearGradient id="SVGID_2_" gradientUnits="userSpaceOnUse" x1="11.7788" y1="23.9443" x2="28.5439" y2="23.9443">
		<stop  offset="0" style="stop-color:#1F1F1F"/>
		<stop  offset="1" style="stop-color:#C80000"/>
	</linearGradient>
	<path fill="url(#SVGID_2_)" d="M25.842,19.429c-1.176-0.125-3.314-0.154-4.169,0.229c-0.795,0.356-1.126,0.977-1.42,1.786
		c-1.895,0.148-4.326-0.197-6.138,0c-0.438,0.048-1.024,0.795-1.374,1.146c-0.394,0.394-0.972,0.843-0.962,1.42
		c0.01,0.572,0.632,0.97,1.007,1.374c0.417,0.448,0.838,0.982,1.237,1.1c0.502,0.147,3.03,0.215,3.619,0
		c0.331-0.121,0.54-0.547,0.55-0.825c0.056-1.601-2.235-0.633-3.436-0.962c-0.093-0.025-0.774-0.574-0.778-0.687
		c-0.011-0.247,0.494-0.389,0.687-0.733c1.686,0,3.252,0,4.993,0c0.557,0,1.176,0.093,1.604-0.046
		c0.762-0.246,0.582-1.664,1.19-1.924c0.41-0.174,1.177-0.046,1.741-0.046c0.604,0,1.271-0.121,1.694,0.092
		c0.592,0.298,0.886,1.88,0.825,2.886c-0.041,0.68-0.255,2.088-0.779,2.382c-0.368,0.208-1.208,0.092-1.74,0.092
		c-0.506,0-1.399,0.093-1.741-0.046c-0.789-0.321-0.322-1.931-1.466-1.97c-1.552-0.052-0.797,2.143-0.229,2.886
		c0.423,0.553,1.085,0.864,1.649,0.962c1.16,0,2.32,0,3.48,0c1.92-0.309,2.336-2.122,2.657-4.03c0-0.352,0-0.702,0-1.054
		C28.199,21.628,27.876,19.646,25.842,19.429z"/>
	<linearGradient id="SVGID_3_" gradientUnits="userSpaceOnUse" x1="23.9121" y1="23.9805" x2="25.7148" y2="23.9805">
		<stop  offset="0" style="stop-color:#1F1F1F"/>
		<stop  offset="1" style="stop-color:#C80000"/>
	</linearGradient>
	<path fill="url(#SVGID_3_)" d="M24.925,24.88c0.908-0.068,0.946-1.233,0.55-1.604c-0.192-0.18-0.565-0.23-0.824-0.183
		c-0.496,0.091-0.702,0.373-0.733,0.778C23.85,24.764,24.463,24.915,24.925,24.88z"/>
</g>
</svg>
