<?xml version="1.0" encoding="utf-8"?>
<!-- Generator: Adobe Illustrator 13.0.0, SVG Export Plug-In . SVG Version: 6.00 Build 14948)  -->
<!DOCTYPE svg PUBLIC "-//W3C//DTD SVG 1.1//EN" "http://www.w3.org/Graphics/SVG/1.1/DTD/svg11.dtd">
<svg version="1.1" id="Calque_1" xmlns="http://www.w3.org/2000/svg" xmlns:xlink="http://www.w3.org/1999/xlink" x="0px" y="0px"
	 width="300px" height="150px" viewBox="0 0 300 150" enable-background="new 0 0 300 150" xml:space="preserve">
<g>
	<g>
		<g>
			<path fill="#2D2D2D" d="M19.65,134.719h2.013c0.392,0,0.689,0.021,0.897,0.055c0.208,0.035,0.418,0.134,0.63,0.291
				c0.213,0.158,0.379,0.373,0.5,0.647c0.12,0.272,0.182,0.579,0.182,0.921c0,0.801-0.301,1.363-0.899,1.688l1.177,2.803h-1.53
				l-0.855-2.532H21.06v2.532h-1.41V134.719z M21.057,135.756v1.797h0.618c0.551,0,0.825-0.309,0.825-0.924
				c0-0.213-0.041-0.387-0.122-0.523c-0.082-0.137-0.176-0.229-0.283-0.275c-0.107-0.048-0.267-0.072-0.477-0.072L21.057,135.756
				L21.057,135.756z"/>
			<path fill="#2D2D2D" d="M28.354,138.753c0,1.644-0.642,2.466-1.92,2.466c-1.284,0-1.927-0.822-1.927-2.466
				c0-1.642,0.643-2.462,1.927-2.462C27.713,136.291,28.354,137.111,28.354,138.753z M26.989,138.755
				c0-0.604-0.042-1.013-0.123-1.226c-0.082-0.213-0.227-0.319-0.432-0.319c-0.2,0-0.344,0.103-0.431,0.304
				s-0.131,0.615-0.131,1.241c0,0.579,0.038,0.981,0.111,1.208c0.075,0.225,0.225,0.338,0.449,0.338
				c0.214,0,0.359-0.111,0.438-0.336S26.989,139.338,26.989,138.755z"/>
			<path fill="#2D2D2D" d="M29.062,136.385h1.322v3.043c0,0.307,0.028,0.512,0.085,0.615c0.056,0.104,0.178,0.154,0.365,0.154
				c0.172,0,0.303-0.043,0.393-0.127c0.089-0.084,0.144-0.2,0.162-0.351c0.02-0.149,0.027-0.454,0.027-0.918v-2.419h1.321v4.736
				h-1.242v-0.646c-0.188,0.32-0.375,0.524-0.561,0.612c-0.188,0.088-0.406,0.132-0.659,0.132c-0.341,0-0.603-0.07-0.782-0.211
				c-0.182-0.142-0.3-0.318-0.353-0.533c-0.054-0.218-0.08-0.554-0.08-1.011L29.062,136.385L29.062,136.385z"/>
			<path fill="#2D2D2D" d="M33.907,134.932l1.284-0.043v1.496h0.872v1.041h-0.872v1.739c0,0.321,0.008,0.53,0.021,0.627
				c0.015,0.095,0.062,0.175,0.142,0.239c0.079,0.063,0.213,0.096,0.4,0.096c0.101,0,0.226-0.003,0.375-0.01v1.004
				c-0.294,0.066-0.563,0.098-0.808,0.098c-0.399,0-0.706-0.076-0.919-0.229c-0.213-0.153-0.349-0.346-0.407-0.577
				c-0.061-0.231-0.089-0.599-0.089-1.103v-1.887h-0.525v-1.041h0.525L33.907,134.932L33.907,134.932z"/>
			<path fill="#2D2D2D" d="M40.298,138.975h-2.479v0.262c0,0.424,0.059,0.705,0.174,0.852c0.114,0.145,0.267,0.217,0.453,0.217
				c0.402,0,0.627-0.271,0.678-0.81l1.177,0.073c-0.209,1.103-0.835,1.65-1.878,1.65c-0.644,0-1.131-0.217-1.466-0.65
				c-0.334-0.436-0.501-1.016-0.501-1.743c0-0.822,0.177-1.45,0.531-1.884c0.354-0.434,0.83-0.648,1.427-0.648
				c0.537,0,0.985,0.189,1.347,0.574C40.118,137.248,40.298,137.951,40.298,138.975z M39.051,138.209
				c0.004-0.057,0.006-0.102,0.006-0.132c0-0.61-0.206-0.914-0.617-0.914c-0.404,0-0.608,0.349-0.611,1.046H39.051z"/>
			<path fill="#2D2D2D" d="M42.981,134.719h2.063l0.905,3.954l1.018-3.954h2.003v6.402h-1.317v-5.361l-1.31,5.361h-1.021
				l-1.195-5.361v5.361h-1.145V134.719z"/>
			<path fill="#2D2D2D" d="M51.329,137.889l-1.252-0.121c0.06-0.475,0.262-0.842,0.606-1.098c0.346-0.256,0.78-0.385,1.307-0.385
				c0.443,0,0.801,0.086,1.068,0.256c0.27,0.17,0.438,0.369,0.509,0.594c0.07,0.227,0.104,0.573,0.104,1.045v1.894
				c0,0.587,0.026,0.938,0.08,1.05h-1.229c-0.043-0.129-0.064-0.371-0.064-0.729c-0.29,0.549-0.723,0.824-1.296,0.824
				c-0.369,0-0.668-0.109-0.898-0.33s-0.347-0.541-0.347-0.964c0-0.528,0.174-0.937,0.523-1.228c0.351-0.287,0.985-0.461,1.91-0.518
				V138c0-0.314-0.032-0.535-0.097-0.655c-0.063-0.122-0.188-0.184-0.371-0.184C51.548,137.163,51.363,137.404,51.329,137.889z
				 M52.351,138.861c-0.385,0.043-0.659,0.127-0.823,0.254s-0.245,0.339-0.245,0.639c0,0.398,0.146,0.6,0.439,0.6
				c0.159,0,0.304-0.09,0.434-0.27c0.131-0.18,0.195-0.51,0.195-0.99V138.861z"/>
			<path fill="#2D2D2D" d="M54.645,134.719h1.321v2.168c0.238-0.4,0.625-0.602,1.163-0.602c0.322,0,0.576,0.076,0.764,0.227
				c0.186,0.148,0.304,0.34,0.354,0.569s0.074,0.563,0.074,1.001v3.039H57v-3.043c0-0.311-0.028-0.516-0.087-0.617
				s-0.178-0.152-0.357-0.152c-0.179,0-0.321,0.049-0.428,0.146c-0.105,0.098-0.16,0.316-0.16,0.661v3.006h-1.321L54.645,134.719
				L54.645,134.719z"/>
			<path fill="#2D2D2D" d="M61.543,134.719h1.299v6.402h-1.229v-0.783c-0.198,0.564-0.559,0.85-1.076,0.85
				c-0.51,0-0.889-0.223-1.138-0.666c-0.25-0.442-0.375-1.026-0.375-1.75c0-0.82,0.145-1.437,0.43-1.842
				c0.285-0.406,0.668-0.609,1.146-0.609c0.44,0,0.755,0.169,0.942,0.508V134.719L61.543,134.719z M61.543,138.366
				c0-0.466-0.049-0.776-0.147-0.935c-0.1-0.158-0.243-0.236-0.432-0.236c-0.223,0-0.374,0.109-0.454,0.328
				c-0.079,0.219-0.119,0.672-0.119,1.356c0,0.513,0.044,0.87,0.132,1.077c0.088,0.205,0.231,0.311,0.434,0.311
				c0.17,0,0.311-0.07,0.422-0.209c0.11-0.141,0.167-0.425,0.167-0.854L61.543,138.366L61.543,138.366z"/>
			<path fill="#2D2D2D" d="M65.135,135.995h-1.341v-1.308h1.341V135.995z M63.804,136.385h1.321v4.736h-1.321V136.385z"/>
			<path fill="#2D2D2D" d="M67.363,137.889l-1.252-0.121c0.061-0.475,0.263-0.842,0.606-1.098c0.345-0.256,0.781-0.385,1.307-0.385
				c0.442,0,0.801,0.086,1.068,0.256c0.269,0.17,0.439,0.369,0.51,0.594c0.07,0.227,0.104,0.573,0.104,1.045v1.894
				c0,0.587,0.026,0.938,0.08,1.05h-1.229c-0.044-0.129-0.065-0.371-0.065-0.729c-0.29,0.549-0.723,0.824-1.297,0.824
				c-0.368,0-0.668-0.109-0.898-0.33s-0.347-0.541-0.347-0.964c0-0.528,0.175-0.937,0.523-1.228
				c0.351-0.287,0.985-0.461,1.909-0.518V138c0-0.314-0.031-0.535-0.096-0.655c-0.063-0.122-0.188-0.184-0.372-0.184
				C67.582,137.163,67.397,137.404,67.363,137.889z M68.385,138.861c-0.385,0.043-0.658,0.127-0.822,0.254
				c-0.165,0.127-0.247,0.339-0.247,0.639c0,0.398,0.146,0.6,0.44,0.6c0.159,0,0.305-0.09,0.435-0.27
				c0.129-0.18,0.193-0.51,0.193-0.99L68.385,138.861L68.385,138.861z"/>
			<path fill="#2D2D2D" d="M72.47,134.719h1.321v3.493l1.331-1.827h1.202l-1.197,1.59l1.313,3.146h-1.428l-0.739-2.196l-0.481,0.663
				v1.533H72.47V134.719z"/>
			<path fill="#2D2D2D" d="M76.888,136.385h1.252v0.646c0.226-0.493,0.607-0.74,1.147-0.74c0.563,0,0.903,0.247,1.021,0.74
				c0.213-0.493,0.598-0.74,1.15-0.74c0.311,0,0.558,0.057,0.74,0.169s0.312,0.267,0.383,0.462c0.07,0.195,0.106,0.563,0.106,1.104
				v3.098h-1.321v-2.959c0-0.354-0.025-0.583-0.075-0.688c-0.05-0.106-0.161-0.16-0.333-0.16c-0.206,0-0.341,0.069-0.402,0.209
				c-0.063,0.139-0.095,0.42-0.095,0.842v2.758H79.14v-3.001c0-0.338-0.023-0.558-0.072-0.657c-0.049-0.099-0.158-0.148-0.331-0.148
				c-0.213,0-0.354,0.072-0.425,0.219c-0.069,0.146-0.104,0.422-0.104,0.832v2.758h-1.322v-4.738h0.003V136.385z"/>
			<path fill="#2D2D2D" d="M87.266,134.663h1.073v5.412H89.4v1.046h-3.545v-1.046h1.079v-3.78c-0.318,0.332-0.679,0.6-1.079,0.803
				v-1.252C86.427,135.545,86.897,135.15,87.266,134.663z"/>
			<path fill="#2D2D2D" d="M90.436,139.705h1.31v1.416h-1.31V139.705z"/>
			<path fill="#2D2D2D" d="M93.147,134.719h3.423l-0.136,1.254h-2.257l-0.081,1.443c0.265-0.365,0.629-0.549,1.092-0.549
				c0.456,0,0.855,0.168,1.202,0.502c0.345,0.335,0.519,0.865,0.519,1.595c0,0.744-0.198,1.306-0.597,1.687
				c-0.396,0.379-0.914,0.568-1.553,0.568c-0.594,0-1.081-0.162-1.463-0.492c-0.382-0.328-0.602-0.768-0.656-1.316l1.28-0.209
				c0.071,0.584,0.349,0.876,0.83,0.876c0.528,0,0.793-0.347,0.793-1.036c0-0.309-0.07-0.557-0.211-0.744
				c-0.142-0.188-0.342-0.281-0.604-0.281c-0.343,0-0.577,0.163-0.702,0.495l-1.104-0.21L93.147,134.719z"/>
		</g>
		<g>
			
				<linearGradient id="SVGID_1_" gradientUnits="userSpaceOnUse" x1="153.8035" y1="1104.1367" x2="160.6683" y2="1096.8527" gradientTransform="matrix(1 0 0 1 -147.5625 -963.3857)">
				<stop  offset="0" style="stop-color:#1F1F1F"/>
				<stop  offset="1" style="stop-color:#C80000"/>
			</linearGradient>
			<path fill="url(#SVGID_1_)" d="M9.588,132.41c0.15,0,0.304,0,0.454,0c1.778,0.111,3.304,1.268,3.89,2.766
				c0.154,0.396,0.667,2.057-0.108,2.074c-0.523,0.012-0.424-0.535-0.518-1.059c-0.235-1.314-1.095-2.215-2.097-2.637
				c-0.824-0.35-1.887-0.316-2.637-0.044c-1.418,0.521-2.584,1.948-2.246,3.935c0.155,0.916,0.614,1.594,1.036,2.117
				c0.607,0.75,1.545,1.668,2.204,2.525c0.189,0.248,0.604,0.684,0.54,1.018c-0.034,0.176-0.159,0.362-0.454,0.345
				c-0.261-0.017-0.433-0.364-0.604-0.604c-0.523-0.729-1.146-1.356-1.687-1.967c-0.792-0.893-1.521-1.723-1.836-3.045
				c-0.362-1.525,0.146-2.891,0.843-3.76C7.094,133.168,8.067,132.557,9.588,132.41z"/>
			
				<linearGradient id="SVGID_2_" gradientUnits="userSpaceOnUse" x1="153.5154" y1="1103.8662" x2="160.3807" y2="1096.5817" gradientTransform="matrix(1 0 0 1 -147.5625 -963.3857)">
				<stop  offset="0" style="stop-color:#1F1F1F"/>
				<stop  offset="1" style="stop-color:#C80000"/>
			</linearGradient>
			<path fill="url(#SVGID_2_)" d="M9.546,134.16c0.029-0.004,0.281-0.035,0.476-0.021c1.169,0.084,2.021,0.854,2.354,1.881
				c0.134,0.412,0.299,1.371-0.39,1.23c-0.391-0.08-0.282-0.514-0.41-0.951c-0.27-0.922-1.405-1.658-2.55-1.123
				c-0.758,0.355-1.327,1.396-0.886,2.398c0.192,0.438,0.654,0.896,1.209,1.037c0.399,0.1,0.804,0.02,0.886,0.367
				c0.162,0.68-0.744,0.566-1.231,0.41c-1.083-0.354-1.981-1.318-1.879-2.767C7.222,135.279,8.261,134.291,9.546,134.16z"/>
			
				<linearGradient id="SVGID_3_" gradientUnits="userSpaceOnUse" x1="157.7166" y1="1107.8252" x2="164.5816" y2="1100.5408" gradientTransform="matrix(1 0 0 1 -147.5625 -963.3857)">
				<stop  offset="0" style="stop-color:#1F1F1F"/>
				<stop  offset="1" style="stop-color:#C80000"/>
			</linearGradient>
			<path fill="url(#SVGID_3_)" d="M16.438,140.469c0,0.059,0,0.115,0,0.174c-0.027,0.342-0.571,0.459-0.777,0.193
				c-0.031,0.551,0.043,1.07,0,1.534c-0.06,0.638-0.498,0.966-1.06,1.103c-0.907,0-1.813,0-2.723,0
				c-1.104-0.115-1.149-1.283-1.08-2.572c-0.274,0.162-0.712,0.078-0.734-0.301c-0.021-0.346,0.375-0.564,0.584-0.758
				c0.549-0.502,0.88-0.84,1.383-1.295c0.237-0.217,0.508-0.484,0.777-0.584c0.733-0.273,1.221,0.203,1.621,0.563
				c0.252,0.229,0.472,0.425,0.69,0.625C15.618,139.611,16.055,139.961,16.438,140.469z M12.376,139.41
				c-0.188,0.174-0.665,0.518-0.713,0.713c-0.096,0.381,0,0.801,0,1.254c0,0.365-0.122,0.92,0.107,1.145
				c0.21,0.205,1.082,0.086,1.426,0.086c0.387,0,1.247,0.113,1.47-0.063c0.195-0.154,0.13-0.822,0.13-1.23
				c0-0.424,0.096-0.885,0-1.23c-0.03-0.111-0.244-0.275-0.346-0.367c-0.158-0.143-0.238-0.229-0.367-0.346
				c-0.207-0.188-0.593-0.631-0.863-0.605C12.965,138.785,12.55,139.25,12.376,139.41z"/>
		</g>
	</g>
	<g>
		<g>
			
				<linearGradient id="SVGID_4_" gradientUnits="userSpaceOnUse" x1="253.8152" y1="1106.3721" x2="260.7054" y2="1096.3993" gradientTransform="matrix(1 0 0 1 -147.5625 -963.3857)">
				<stop  offset="0" style="stop-color:#1F1F1F"/>
				<stop  offset="1" style="stop-color:#C80000"/>
			</linearGradient>
			<path fill="url(#SVGID_4_)" d="M107.235,136.516c0.59,1.721,1.521,2.873,3.107,3.59c0.199,0.09,0.572,0.254,0.7,0.242
				c0.369-0.039,0.726-1.021,1.132-1.061c0.242-0.025,0.608,0.244,0.819,0.359c0.542,0.299,0.929,0.498,1.47,0.869
				c0.212,0.146,0.563,0.383,0.578,0.577c0.018,0.233-0.328,0.521-0.506,0.698c-0.471,0.47-0.752,0.688-1.277,1.084
				c-0.202,0.15-0.493,0.427-0.723,0.458c-0.493,0.065-1.202-0.256-1.64-0.435c-1.499-0.61-2.645-1.486-3.688-2.529
				c-1.021-1.021-1.922-2.171-2.529-3.688c-0.188-0.468-0.489-1.1-0.435-1.613c0.024-0.23,0.274-0.51,0.435-0.724
				c0.325-0.44,0.64-0.825,1.035-1.229c0.151-0.153,0.506-0.596,0.724-0.577c0.443,0.038,0.864,0.979,1.061,1.301
				c0.169,0.276,0.302,0.507,0.435,0.748c0.144,0.263,0.383,0.601,0.36,0.819c-0.021,0.197-0.354,0.451-0.506,0.576
				C107.57,136.168,107.398,136.251,107.235,136.516z"/>
			
				<linearGradient id="SVGID_5_" gradientUnits="userSpaceOnUse" x1="254.3621" y1="1106.751" x2="261.251" y2="1096.7799" gradientTransform="matrix(1 0 0 1 -147.5625 -963.3857)">
				<stop  offset="0" style="stop-color:#1F1F1F"/>
				<stop  offset="1" style="stop-color:#C80000"/>
			</linearGradient>
			<path fill="url(#SVGID_5_)" d="M115.042,137.551c-0.257,0-0.515,0-0.771,0c-0.198-2.572-1.646-4.039-4.241-4.24
				c0.018-0.25-0.031-0.563,0.025-0.771C113.053,132.751,114.856,134.563,115.042,137.551z"/>
			
				<linearGradient id="SVGID_6_" gradientUnits="userSpaceOnUse" x1="254.1541" y1="1106.6035" x2="261.0417" y2="1096.6345" gradientTransform="matrix(1 0 0 1 -147.5625 -963.3857)">
				<stop  offset="0" style="stop-color:#1F1F1F"/>
				<stop  offset="1" style="stop-color:#C80000"/>
			</linearGradient>
			<path fill="url(#SVGID_6_)" d="M113.115,137.551c-0.259,0-0.516,0-0.771,0c-0.119-1.424-0.89-2.195-2.314-2.313
				c0-0.258,0-0.514,0-0.771C111.929,134.625,112.955,135.654,113.115,137.551z"/>
		</g>
		<g>
			<g>
				<path fill="#2D2D2D" d="M118.386,134.986h3.548v1.006c-0.951,1.229-1.435,2.883-1.448,4.967h-1.426
					c0.022-1.822,0.605-3.426,1.75-4.805h-2.524L118.386,134.986z"/>
				<path fill="#2D2D2D" d="M124.086,134.895h1.427v3.643h0.67v1.021h-0.67v1.402H124.2v-1.402h-2.148v-1.021L124.086,134.895z
					 M124.305,138.604v-2.459l-1.325,2.459H124.305z"/>
				<path fill="#2D2D2D" d="M130.339,134.895h1.427v3.643h0.669v1.021h-0.669v1.402h-1.313v-1.402h-2.147v-1.021L130.339,134.895z
					 M130.557,138.604v-2.459l-1.326,2.459H130.557z"/>
				<path fill="#2D2D2D" d="M135.045,134.895h1.427v3.643h0.67v1.021h-0.67v1.402h-1.313v-1.402h-2.148v-1.021L135.045,134.895z
					 M135.265,138.604v-2.459l-1.326,2.459H135.265z"/>
				<path fill="#2D2D2D" d="M141.652,137.9c0,1.078-0.155,1.873-0.466,2.385c-0.313,0.51-0.821,0.766-1.529,0.766
					c-0.731,0-1.247-0.266-1.547-0.795c-0.299-0.529-0.448-1.266-0.448-2.207c0-1.084,0.155-1.881,0.467-2.391
					s0.818-0.764,1.528-0.764c0.731,0,1.248,0.265,1.547,0.795C141.502,136.217,141.652,136.955,141.652,137.9z M140.27,137.973
					c0-0.904-0.041-1.483-0.123-1.74c-0.082-0.256-0.244-0.383-0.486-0.383c-0.221,0-0.377,0.106-0.473,0.323
					c-0.097,0.216-0.145,0.815-0.145,1.8c0,0.974,0.046,1.569,0.14,1.791c0.093,0.223,0.251,0.334,0.478,0.334
					c0.216,0,0.372-0.104,0.468-0.313C140.222,139.574,140.27,138.971,140.27,137.973z"/>
				<path fill="#2D2D2D" d="M147.913,136.482l-1.063,0.319c-0.097-0.638-0.347-0.952-0.748-0.952c-0.251,0-0.446,0.129-0.586,0.385
					c-0.142,0.26-0.216,0.804-0.225,1.635c0.245-0.451,0.608-0.678,1.095-0.678c0.439,0,0.812,0.168,1.11,0.5
					c0.301,0.334,0.449,0.793,0.449,1.371c0,0.65-0.176,1.146-0.528,1.48c-0.354,0.338-0.806,0.506-1.355,0.506
					c-1.321,0-1.98-1.001-1.98-3.002c0-1.082,0.184-1.878,0.547-2.389c0.365-0.512,0.869-0.768,1.516-0.768
					c0.469,0,0.855,0.135,1.163,0.4C147.611,135.563,147.813,135.957,147.913,136.482z M146.675,139.061
					c0-0.607-0.217-0.916-0.646-0.916c-0.452,0-0.679,0.336-0.679,1.006c0,0.318,0.063,0.557,0.182,0.711
					c0.121,0.156,0.281,0.236,0.479,0.236C146.453,140.098,146.675,139.752,146.675,139.061z"/>
				<path fill="#2D2D2D" d="M152.484,137.9c0,1.078-0.154,1.873-0.466,2.385c-0.311,0.51-0.82,0.766-1.529,0.766
					c-0.731,0-1.246-0.266-1.547-0.795c-0.299-0.529-0.446-1.266-0.446-2.207c0-1.084,0.153-1.881,0.466-2.391
					c0.311-0.51,0.819-0.764,1.527-0.764c0.732,0,1.248,0.265,1.548,0.795C152.335,136.217,152.484,136.955,152.484,137.9z
					 M151.102,137.973c0-0.904-0.041-1.483-0.122-1.74c-0.082-0.256-0.245-0.383-0.486-0.383c-0.221,0-0.377,0.106-0.475,0.323
					c-0.096,0.216-0.142,0.815-0.142,1.8c0,0.974,0.045,1.569,0.139,1.791c0.092,0.223,0.25,0.334,0.478,0.334
					c0.217,0,0.372-0.104,0.467-0.313C151.055,139.574,151.102,138.971,151.102,137.973z"/>
				<path fill="#2D2D2D" d="M154.226,137.092l-1.192-0.242c0.193-1.303,0.854-1.955,1.978-1.955c0.605,0,1.067,0.168,1.385,0.506
					c0.315,0.336,0.476,0.748,0.476,1.234c0,0.504-0.176,0.994-0.524,1.475c-0.351,0.479-1.008,1.039-1.974,1.684h2.582
					l-0.098,1.168h-3.822v-1.168c1.094-0.938,1.774-1.6,2.047-1.982c0.271-0.389,0.405-0.754,0.405-1.103
					c0-0.497-0.188-0.745-0.56-0.745c-0.226,0-0.39,0.1-0.492,0.293C154.33,136.451,154.26,136.729,154.226,137.092z"/>
			</g>
			<g>
				<path fill="#2D2D2D" d="M165.114,137.029l-1.193-0.24c0.195-1.305,0.854-1.957,1.979-1.957c0.605,0,1.066,0.17,1.386,0.506
					c0.315,0.337,0.476,0.748,0.476,1.236c0,0.502-0.177,0.992-0.525,1.473c-0.352,0.479-1.008,1.04-1.973,1.682h2.579l-0.095,1.168
					h-3.824v-1.168c1.094-0.937,1.775-1.597,2.048-1.982c0.271-0.389,0.407-0.753,0.407-1.102c0-0.496-0.188-0.744-0.562-0.744
					c-0.226,0-0.391,0.1-0.492,0.293C165.219,136.389,165.149,136.668,165.114,137.029z"/>
				<path fill="#2D2D2D" d="M171.642,137.637c0.614,0.362,0.924,0.879,0.924,1.549c0,0.502-0.178,0.929-0.529,1.278
					c-0.354,0.351-0.871,0.524-1.559,0.524c-0.659,0-1.15-0.153-1.477-0.459c-0.326-0.307-0.487-0.701-0.487-1.188
					c0-0.287,0.066-0.543,0.202-0.764c0.137-0.221,0.394-0.432,0.771-0.629c-0.535-0.338-0.804-0.807-0.804-1.403
					c0-0.467,0.156-0.869,0.474-1.208c0.313-0.338,0.79-0.508,1.43-0.508c0.606,0,1.063,0.145,1.363,0.424
					c0.301,0.281,0.452,0.646,0.452,1.104C172.403,136.918,172.149,137.342,171.642,137.637z M170.243,138.381
					c-0.382,0.232-0.57,0.525-0.57,0.875c0,0.25,0.076,0.451,0.228,0.602c0.15,0.15,0.358,0.227,0.625,0.227
					c0.247,0,0.442-0.066,0.589-0.205c0.146-0.137,0.219-0.301,0.219-0.488c0-0.154-0.062-0.309-0.182-0.459
					C171.028,138.775,170.727,138.594,170.243,138.381z M170.85,137.244c0.282-0.27,0.425-0.543,0.425-0.822
					c0-0.219-0.06-0.398-0.173-0.531c-0.115-0.137-0.279-0.203-0.492-0.203c-0.205,0-0.371,0.063-0.498,0.184
					c-0.129,0.123-0.193,0.277-0.193,0.468c0,0.229,0.103,0.413,0.306,0.558C170.425,137.036,170.634,137.154,170.85,137.244z"/>
				<path fill="#2D2D2D" d="M177.894,137.637c0.614,0.362,0.923,0.879,0.923,1.549c0,0.502-0.176,0.929-0.528,1.278
					c-0.354,0.351-0.873,0.524-1.559,0.524c-0.659,0-1.15-0.153-1.478-0.459c-0.326-0.307-0.486-0.701-0.486-1.188
					c0-0.287,0.066-0.543,0.203-0.764c0.135-0.221,0.393-0.432,0.771-0.629c-0.535-0.338-0.805-0.807-0.805-1.403
					c0-0.467,0.157-0.869,0.474-1.208c0.314-0.338,0.792-0.508,1.432-0.508c0.605,0,1.061,0.145,1.362,0.424
					c0.301,0.281,0.451,0.646,0.451,1.104C178.654,136.918,178.401,137.342,177.894,137.637z M176.495,138.381
					c-0.382,0.232-0.57,0.525-0.57,0.875c0,0.25,0.074,0.451,0.228,0.602c0.151,0.15,0.357,0.227,0.624,0.227
					c0.248,0,0.444-0.066,0.589-0.205c0.146-0.137,0.22-0.301,0.22-0.488c0-0.154-0.061-0.309-0.183-0.459
					C177.28,138.775,176.979,138.594,176.495,138.381z M177.102,137.244c0.283-0.27,0.424-0.543,0.424-0.822
					c0-0.219-0.059-0.398-0.172-0.531c-0.116-0.137-0.278-0.203-0.492-0.203c-0.203,0-0.369,0.063-0.499,0.184
					c-0.128,0.123-0.191,0.277-0.191,0.468c0,0.229,0.103,0.413,0.304,0.558C176.678,137.036,176.886,137.154,177.102,137.244z"/>
				<path fill="#2D2D2D" d="M181.018,134.873h1.001v5.048h0.988v0.976H179.7v-0.976h1.007v-3.524
					c-0.298,0.31-0.633,0.559-1.007,0.748v-1.17C180.233,135.693,180.673,135.327,181.018,134.873z"/>
				<path fill="#2D2D2D" d="M185.492,134.832h1.426v3.641h0.67v1.021h-0.67v1.402h-1.313v-1.402h-2.147v-1.021L185.492,134.832z
					 M185.712,138.543v-2.459l-1.325,2.459H185.712z"/>
				<path fill="#2D2D2D" d="M190.262,134.924h3.192l-0.126,1.17h-2.105l-0.077,1.348c0.249-0.342,0.588-0.512,1.021-0.512
					c0.425,0,0.8,0.154,1.12,0.467c0.321,0.313,0.483,0.81,0.483,1.488c0,0.693-0.187,1.219-0.557,1.572
					c-0.371,0.354-0.854,0.531-1.447,0.531c-0.555,0-1.01-0.153-1.364-0.459c-0.355-0.307-0.562-0.717-0.612-1.229l1.193-0.198
					c0.066,0.547,0.325,0.817,0.773,0.817c0.493,0,0.739-0.321,0.739-0.968c0-0.285-0.065-0.518-0.196-0.69
					c-0.131-0.179-0.318-0.267-0.563-0.267c-0.32,0-0.537,0.152-0.654,0.463l-1.03-0.193L190.262,134.924z"/>
				<path fill="#2D2D2D" d="M198.351,137.838c0,1.08-0.154,1.875-0.467,2.387c-0.311,0.51-0.819,0.765-1.527,0.765
					c-0.731,0-1.249-0.265-1.547-0.794c-0.301-0.529-0.447-1.266-0.447-2.209c0-1.084,0.153-1.881,0.466-2.391
					c0.312-0.508,0.819-0.764,1.528-0.764c0.729,0,1.247,0.266,1.546,0.795S198.351,136.895,198.351,137.838z M196.969,137.911
					c0-0.905-0.041-1.485-0.123-1.741c-0.082-0.255-0.244-0.383-0.487-0.383c-0.22,0-0.378,0.107-0.473,0.324
					c-0.097,0.215-0.144,0.813-0.144,1.8c0,0.972,0.046,1.567,0.139,1.79s0.251,0.334,0.478,0.334c0.217,0,0.373-0.105,0.469-0.313
					C196.921,139.512,196.969,138.909,196.969,137.911z"/>
				<path fill="#2D2D2D" d="M202.931,137.838c0,1.08-0.154,1.875-0.466,2.387c-0.312,0.51-0.819,0.765-1.528,0.765
					c-0.731,0-1.248-0.265-1.547-0.794c-0.3-0.529-0.448-1.266-0.448-2.209c0-1.084,0.155-1.881,0.467-2.391
					c0.313-0.508,0.819-0.764,1.528-0.764c0.73,0,1.248,0.266,1.547,0.795S202.931,136.895,202.931,137.838z M201.55,137.911
					c0-0.905-0.042-1.485-0.124-1.741c-0.081-0.255-0.244-0.383-0.486-0.383c-0.219,0-0.377,0.107-0.473,0.324
					c-0.095,0.215-0.143,0.813-0.143,1.8c0,0.972,0.046,1.567,0.139,1.79s0.25,0.334,0.477,0.334c0.217,0,0.372-0.105,0.469-0.313
					C201.502,139.512,201.55,138.909,201.55,137.911z"/>
			</g>
			<g>
				<path fill="#2D2D2D" d="M159.636,137.486h1.78v0.967h-1.78V137.486z"/>
			</g>
		</g>
	</g>
	<g>
		<g>
			
				<linearGradient id="SVGID_7_" gradientUnits="userSpaceOnUse" x1="356.6824" y1="1102.8057" x2="369.843" y2="1093.705" gradientTransform="matrix(1 0 0 1 -147.5625 -963.3857)">
				<stop  offset="0" style="stop-color:#1F1F1F"/>
				<stop  offset="1" style="stop-color:#C80000"/>
			</linearGradient>
			<path fill="url(#SVGID_7_)" d="M220.518,134.16c-0.006,0.154-0.167,0.23-0.257,0.32c-1.294,1.293-2.604,2.604-3.932,3.931
				c-0.178,0.178-0.429,0.524-0.661,0.534c-0.237,0.01-0.521-0.328-0.704-0.514c-1.317-1.316-2.63-2.63-3.951-3.951
				c-0.085-0.086-0.225-0.186-0.234-0.32c0.688-0.109,1.729-0.063,2.647-0.063c1.566,0,3.207,0,4.784,0
				C219.012,134.098,219.789,134.049,220.518,134.16z"/>
			
				<linearGradient id="SVGID_8_" gradientUnits="userSpaceOnUse" x1="356.365" y1="1102.3477" x2="369.5265" y2="1093.2463" gradientTransform="matrix(1 0 0 1 -147.5625 -963.3857)">
				<stop  offset="0" style="stop-color:#1F1F1F"/>
				<stop  offset="1" style="stop-color:#C80000"/>
			</linearGradient>
			<path fill="url(#SVGID_8_)" d="M210.18,140.952c0-2.007,0-4.015,0-6.022c0.045-0.082,0.037-0.218,0.106-0.277
				c1.104,1.089,2.2,2.186,3.288,3.289c-1.099,1.104-2.178,2.225-3.312,3.289C210.234,141.141,210.214,141.039,210.18,140.952z"/>
			
				<linearGradient id="SVGID_9_" gradientUnits="userSpaceOnUse" x1="359.8455" y1="1107.3789" x2="373.0049" y2="1098.2791" gradientTransform="matrix(1 0 0 1 -147.5625 -963.3857)">
				<stop  offset="0" style="stop-color:#1F1F1F"/>
				<stop  offset="1" style="stop-color:#C80000"/>
			</linearGradient>
			<path fill="url(#SVGID_9_)" d="M221.115,134.93c0,2.008,0,4.016,0,6.022c-0.046,0.083-0.038,0.218-0.107,0.278
				c-1.104-1.088-2.2-2.186-3.287-3.289c0.804-0.836,1.666-1.668,2.479-2.479c0.273-0.272,0.518-0.583,0.832-0.789
				C221.072,134.744,221.077,134.854,221.115,134.93z"/>
			
				<linearGradient id="SVGID_10_" gradientUnits="userSpaceOnUse" x1="359.6228" y1="1107.0557" x2="372.7821" y2="1097.9559" gradientTransform="matrix(1 0 0 1 -147.5625 -963.3857)">
				<stop  offset="0" style="stop-color:#1F1F1F"/>
				<stop  offset="1" style="stop-color:#C80000"/>
			</linearGradient>
			<path fill="url(#SVGID_10_)" d="M217.249,138.411c0.979,0.933,1.957,1.914,2.927,2.883c0.123,0.124,0.291,0.251,0.343,0.429
				c-0.771,0.112-1.589,0.063-2.414,0.063c-1.621,0-3.29,0-4.935,0c-0.816,0-1.627,0.049-2.393-0.063
				c0.05-0.177,0.218-0.304,0.343-0.429c0.939-0.94,1.945-1.933,2.903-2.883c0.59,0.372,0.893,1.399,1.9,1.153
				C216.533,139.416,216.776,138.75,217.249,138.411z"/>
		</g>
		<g>
			<path fill="#2D2D2D" d="M227.691,137.555l-0.949,0.283c-0.127-0.434-0.359-0.648-0.7-0.648c-0.275,0-0.415,0.141-0.415,0.416
				c0,0.158,0.053,0.277,0.156,0.359c0.104,0.083,0.317,0.18,0.643,0.294c0.364,0.128,0.634,0.242,0.804,0.339
				c0.17,0.101,0.313,0.246,0.432,0.441c0.114,0.197,0.175,0.424,0.175,0.68c0,0.439-0.158,0.813-0.479,1.109
				c-0.317,0.301-0.763,0.449-1.333,0.449c-1.074,0-1.67-0.476-1.786-1.422l1.06-0.17c0.089,0.476,0.34,0.713,0.751,0.713
				c0.354,0,0.529-0.147,0.529-0.443c0-0.158-0.053-0.277-0.156-0.359c-0.103-0.082-0.305-0.17-0.604-0.265
				c-0.55-0.177-0.926-0.39-1.13-0.638c-0.205-0.25-0.309-0.537-0.309-0.865c0-0.461,0.162-0.829,0.483-1.105
				c0.323-0.276,0.729-0.416,1.213-0.416C226.923,136.307,227.461,136.723,227.691,137.555z"/>
			<path fill="#2D2D2D" d="M229.774,137.923l-1.261-0.124c0.059-0.479,0.264-0.846,0.611-1.105c0.349-0.258,0.786-0.387,1.315-0.387
				c0.446,0,0.807,0.086,1.076,0.258c0.271,0.172,0.441,0.371,0.513,0.6s0.107,0.578,0.107,1.054v1.903
				c0,0.594,0.025,0.945,0.078,1.061h-1.236c-0.044-0.13-0.065-0.373-0.065-0.732c-0.292,0.555-0.729,0.832-1.308,0.832
				c-0.37,0-0.673-0.11-0.905-0.332c-0.232-0.223-0.35-0.547-0.35-0.973c0-0.531,0.176-0.943,0.527-1.234
				c0.353-0.291,0.994-0.467,1.926-0.521v-0.181c0-0.317-0.033-0.538-0.098-0.661c-0.063-0.124-0.188-0.186-0.374-0.186
				C229.996,137.189,229.81,137.436,229.774,137.923z M230.806,138.9c-0.389,0.045-0.664,0.131-0.83,0.258
				c-0.165,0.127-0.247,0.342-0.247,0.643c0,0.402,0.147,0.604,0.442,0.604c0.161,0,0.309-0.091,0.438-0.271
				c0.132-0.182,0.196-0.513,0.196-0.995V138.9z"/>
			<path fill="#2D2D2D" d="M233.111,134.727h1.333v6.453h-1.333V134.727z"/>
			<path fill="#2D2D2D" d="M239.095,139.014h-2.5v0.267c0,0.427,0.059,0.712,0.174,0.854c0.115,0.146,0.27,0.217,0.457,0.217
				c0.403,0,0.633-0.27,0.685-0.813l1.187,0.076c-0.211,1.107-0.843,1.662-1.894,1.662c-0.647,0-1.142-0.219-1.479-0.656
				s-0.505-1.023-0.505-1.758c0-0.829,0.179-1.463,0.534-1.897c0.356-0.437,0.836-0.655,1.438-0.655c0.542,0,0.994,0.193,1.356,0.58
				C238.913,137.275,239.095,137.984,239.095,139.014z M237.838,138.244c0.003-0.057,0.005-0.102,0.005-0.133
				c0-0.613-0.207-0.922-0.62-0.922c-0.409,0-0.614,0.352-0.617,1.055H237.838z"/>
			<path fill="#2D2D2D" d="M243.021,137.555l-0.949,0.283c-0.127-0.434-0.358-0.648-0.698-0.648c-0.276,0-0.416,0.141-0.416,0.416
				c0,0.158,0.052,0.277,0.154,0.359c0.104,0.083,0.318,0.18,0.645,0.294c0.365,0.128,0.634,0.242,0.804,0.339
				c0.171,0.101,0.313,0.246,0.431,0.441c0.116,0.197,0.176,0.424,0.176,0.68c0,0.439-0.159,0.813-0.479,1.109
				c-0.317,0.301-0.764,0.449-1.332,0.449c-1.075,0-1.671-0.476-1.787-1.422l1.06-0.17c0.089,0.476,0.338,0.713,0.751,0.713
				c0.354,0,0.529-0.147,0.529-0.443c0-0.158-0.053-0.277-0.155-0.359c-0.104-0.082-0.308-0.17-0.604-0.265
				c-0.548-0.177-0.924-0.39-1.13-0.638c-0.204-0.25-0.308-0.537-0.308-0.865c0-0.461,0.161-0.829,0.483-1.105
				c0.323-0.276,0.728-0.416,1.212-0.416C242.253,136.307,242.792,136.723,243.021,137.555z"/>
			<path fill="#2D2D2D" d="M248.99,136.264h0.652l-0.273,1.976c-0.035,0.257-0.054,0.444-0.054,0.567
				c0,0.227,0.071,0.336,0.213,0.336c0.192,0,0.366-0.158,0.522-0.476c0.155-0.317,0.232-0.702,0.232-1.155
				c0-0.716-0.166-1.275-0.501-1.681c-0.333-0.405-0.812-0.606-1.433-0.606c-0.638,0-1.161,0.242-1.574,0.729
				c-0.412,0.485-0.617,1.151-0.617,1.996c0,0.808,0.198,1.46,0.598,1.958c0.397,0.496,0.968,0.746,1.703,0.746
				c0.607,0,1.169-0.174,1.68-0.521l0.26,0.628c-0.624,0.403-1.284,0.605-1.979,0.605c-0.931,0-1.678-0.31-2.245-0.927
				c-0.566-0.613-0.852-1.438-0.852-2.463c0-1.004,0.278-1.83,0.835-2.482c0.557-0.654,1.287-0.98,2.194-0.98
				c0.865,0,1.537,0.271,2.012,0.814c0.475,0.545,0.712,1.236,0.712,2.082c0,0.719-0.172,1.311-0.515,1.771s-0.729,0.69-1.16,0.69
				c-0.369,0-0.605-0.185-0.714-0.548c-0.193,0.371-0.473,0.558-0.831,0.558c-0.29,0-0.527-0.146-0.716-0.437
				c-0.188-0.287-0.281-0.68-0.281-1.168c0-0.588,0.134-1.082,0.397-1.482c0.267-0.396,0.59-0.602,0.971-0.602
				c0.313,0,0.547,0.166,0.697,0.496L248.99,136.264z M248.613,137.719c0-0.428-0.109-0.643-0.33-0.643
				c-0.154,0-0.283,0.107-0.389,0.324c-0.104,0.216-0.156,0.506-0.156,0.871c0,0.487,0.122,0.73,0.364,0.73
				C248.443,139.004,248.613,138.576,248.613,137.719z"/>
			<path fill="#2D2D2D" d="M253.074,136.014h-1.353v-1.317h1.353V136.014z M251.732,136.406h1.333v4.771h-1.333V136.406z"/>
			<path fill="#2D2D2D" d="M256.377,134.727h1.311v6.453h-1.237v-0.789c-0.201,0.569-0.563,0.854-1.086,0.854
				c-0.513,0-0.895-0.224-1.146-0.67c-0.252-0.447-0.379-1.035-0.379-1.765c0-0.828,0.146-1.446,0.435-1.855
				c0.288-0.41,0.673-0.615,1.155-0.615c0.443,0,0.761,0.171,0.948,0.512L256.377,134.727L256.377,134.727z M256.377,138.402
				c0-0.469-0.049-0.782-0.147-0.941c-0.101-0.158-0.245-0.238-0.436-0.238c-0.226,0-0.378,0.111-0.458,0.332
				c-0.08,0.219-0.121,0.676-0.121,1.367c0,0.516,0.044,0.877,0.134,1.086c0.089,0.207,0.233,0.311,0.438,0.311
				c0.172,0,0.313-0.067,0.425-0.209c0.111-0.141,0.168-0.428,0.168-0.859L256.377,138.402L256.377,138.402z"/>
			<path fill="#2D2D2D" d="M262.332,139.014h-2.5v0.267c0,0.427,0.06,0.712,0.174,0.854c0.117,0.146,0.27,0.217,0.457,0.217
				c0.405,0,0.634-0.27,0.684-0.813l1.188,0.076c-0.211,1.107-0.842,1.662-1.894,1.662c-0.647,0-1.142-0.219-1.479-0.656
				s-0.505-1.023-0.505-1.758c0-0.829,0.18-1.463,0.535-1.897c0.357-0.437,0.837-0.655,1.438-0.655c0.542,0,0.993,0.193,1.355,0.58
				C262.15,137.275,262.332,137.984,262.332,139.014z M261.075,138.244c0.003-0.057,0.005-0.102,0.005-0.133
				c0-0.613-0.208-0.922-0.621-0.922c-0.409,0-0.613,0.352-0.617,1.055H261.075z"/>
			<path fill="#2D2D2D" d="M264.388,137.923l-1.263-0.124c0.061-0.479,0.265-0.846,0.611-1.105c0.349-0.258,0.786-0.387,1.315-0.387
				c0.447,0,0.807,0.086,1.077,0.258c0.271,0.172,0.441,0.371,0.514,0.6c0.071,0.229,0.105,0.578,0.105,1.054v1.903
				c0,0.594,0.026,0.945,0.08,1.061h-1.238c-0.044-0.13-0.064-0.373-0.064-0.732c-0.293,0.555-0.729,0.832-1.309,0.832
				c-0.369,0-0.672-0.11-0.904-0.332c-0.231-0.223-0.35-0.547-0.35-0.973c0-0.531,0.177-0.943,0.528-1.234s0.993-0.467,1.924-0.521
				v-0.181c0-0.317-0.032-0.538-0.098-0.661c-0.063-0.124-0.188-0.186-0.374-0.186C264.609,137.189,264.423,137.436,264.388,137.923
				z M265.418,138.9c-0.388,0.045-0.664,0.131-0.828,0.258c-0.167,0.127-0.249,0.342-0.249,0.643c0,0.402,0.147,0.604,0.444,0.604
				c0.159,0,0.307-0.091,0.438-0.271c0.131-0.182,0.195-0.513,0.195-0.995V138.9L265.418,138.9z"/>
			<path fill="#2D2D2D" d="M267.725,134.727h1.333v6.453h-1.333V134.727z"/>
			<path fill="#2D2D2D" d="M271.104,137l-1.29-0.259c0.211-1.408,0.923-2.113,2.137-2.113c0.654,0,1.153,0.183,1.495,0.546
				c0.343,0.364,0.514,0.811,0.514,1.336c0,0.541-0.188,1.072-0.566,1.59c-0.378,0.52-1.089,1.125-2.132,1.816h2.788l-0.104,1.264
				h-4.13v-1.264c1.182-1.01,1.919-1.725,2.211-2.143c0.294-0.418,0.439-0.813,0.439-1.189c0-0.533-0.201-0.803-0.604-0.803
				c-0.242,0-0.42,0.104-0.531,0.316C271.218,136.309,271.141,136.611,271.104,137z"/>
			<path fill="#2D2D2D" d="M278.132,137.555l-0.949,0.283c-0.126-0.434-0.359-0.648-0.7-0.648c-0.276,0-0.416,0.141-0.416,0.416
				c0,0.158,0.054,0.277,0.156,0.359c0.104,0.083,0.318,0.18,0.643,0.294c0.365,0.128,0.635,0.242,0.804,0.339
				c0.171,0.101,0.313,0.246,0.433,0.441c0.115,0.197,0.174,0.424,0.174,0.68c0,0.439-0.158,0.813-0.478,1.109
				c-0.317,0.301-0.763,0.449-1.334,0.449c-1.072,0-1.669-0.476-1.784-1.422l1.058-0.17c0.09,0.476,0.341,0.713,0.752,0.713
				c0.354,0,0.53-0.147,0.53-0.443c0-0.158-0.055-0.277-0.157-0.359c-0.104-0.082-0.305-0.17-0.604-0.265
				c-0.549-0.177-0.925-0.39-1.13-0.638c-0.204-0.25-0.308-0.537-0.308-0.865c0-0.461,0.161-0.829,0.484-1.105
				c0.322-0.276,0.729-0.416,1.212-0.416C277.362,136.307,277.9,136.723,278.132,137.555z"/>
			<path fill="#2D2D2D" d="M279.025,139.752h1.316v1.428h-1.316V139.752z"/>
			<path fill="#2D2D2D" d="M284.975,138.163l-1.239,0.048c-0.02-0.293-0.064-0.516-0.141-0.664
				c-0.077-0.148-0.203-0.225-0.385-0.225c-0.446,0-0.671,0.47-0.671,1.408c0,0.545,0.056,0.926,0.163,1.144
				c0.107,0.217,0.271,0.326,0.484,0.326c0.333,0,0.518-0.294,0.547-0.884l1.239,0.08c-0.11,1.254-0.732,1.881-1.869,1.881
				c-0.612,0-1.083-0.207-1.409-0.621c-0.324-0.414-0.488-1.031-0.488-1.85c0-0.813,0.172-1.434,0.514-1.857
				c0.342-0.426,0.819-0.639,1.438-0.639C284.271,136.311,284.876,136.93,284.975,138.163z"/>
			<path fill="#2D2D2D" d="M289.369,138.792c0,1.657-0.646,2.485-1.936,2.485c-1.293,0-1.939-0.828-1.939-2.485
				c0-1.653,0.646-2.481,1.939-2.481C288.725,136.311,289.369,137.139,289.369,138.792z M287.994,138.794
				c0-0.608-0.041-1.021-0.125-1.235c-0.082-0.215-0.229-0.319-0.436-0.319c-0.201,0-0.347,0.102-0.435,0.306
				c-0.088,0.203-0.132,0.62-0.132,1.251c0,0.585,0.037,0.989,0.112,1.218s0.227,0.342,0.452,0.342c0.217,0,0.362-0.113,0.441-0.338
				C287.955,139.787,287.994,139.381,287.994,138.794z"/>
			<path fill="#2D2D2D" d="M290.149,136.406h1.263v0.652c0.229-0.5,0.612-0.748,1.157-0.748c0.566,0,0.91,0.248,1.03,0.748
				c0.215-0.5,0.603-0.748,1.158-0.748c0.313,0,0.562,0.057,0.747,0.17c0.186,0.114,0.313,0.27,0.386,0.465
				c0.072,0.197,0.108,0.568,0.108,1.113v3.118h-1.333v-2.981c0-0.354-0.023-0.588-0.075-0.693
				c-0.051-0.107-0.161-0.161-0.335-0.161c-0.208,0-0.344,0.071-0.406,0.212c-0.063,0.139-0.096,0.422-0.096,0.848v2.779h-1.333
				v-3.024c0-0.341-0.022-0.562-0.071-0.661c-0.05-0.1-0.16-0.151-0.334-0.151c-0.215,0-0.355,0.074-0.429,0.222
				c-0.069,0.146-0.104,0.426-0.104,0.84v2.777h-1.333V136.406L290.149,136.406z"/>
		</g>
	</g>
</g>
<g>
	
		<linearGradient id="SVGID_11_" gradientUnits="userSpaceOnUse" x1="24.7991" y1="92.126" x2="64.7573" y2="126.9015" gradientTransform="matrix(1 0 0 -1 0.0376 149.1143)">
		<stop  offset="0" style="stop-color:#1F1F1F"/>
		<stop  offset="1" style="stop-color:#C80000"/>
	</linearGradient>
	<path fill="url(#SVGID_11_)" d="M65.493,27.459l-3.426-8.725C63.162,21.691,64.327,24.575,65.493,27.459z"/>
	
		<linearGradient id="SVGID_12_" gradientUnits="userSpaceOnUse" x1="39.7229" y1="74.9302" x2="79.7039" y2="109.7254" gradientTransform="matrix(1 0 0 -1 0.0376 149.1143)">
		<stop  offset="0" style="stop-color:#1F1F1F"/>
		<stop  offset="1" style="stop-color:#C80000"/>
	</linearGradient>
	<path fill="url(#SVGID_12_)" d="M85.937,34.311l1.261-1.725c-0.462,0.568-0.932,1.13-1.407,1.685
		C85.839,34.284,85.889,34.297,85.937,34.311z"/>
	<g>
		<g>
			
				<linearGradient id="SVGID_13_" gradientUnits="userSpaceOnUse" x1="35.78" y1="51.4326" x2="75.7515" y2="86.2196" gradientTransform="matrix(1 0 0 -1 -11.3794 107.9482)">
				<stop  offset="0" style="stop-color:#1F1F1F"/>
				<stop  offset="1" style="stop-color:#C80000"/>
			</linearGradient>
			<path fill="url(#SVGID_13_)" d="M65.493,27.459c-1.166-2.884-2.331-5.768-3.426-8.725l-0.461-1.179l-2.128-5.421
				c-6.894,3.191-12.987,7.815-17.902,13.489c-0.568,0.656-1.121,1.326-1.657,2.01c5.512,5.013,11.515,9.533,17.142,14.429
				c3.144-3.203,7.012-5.69,11.341-7.194L65.493,27.459z"/>
		</g>
	</g>
	<g>
		<g>
			
				<linearGradient id="SVGID_14_" gradientUnits="userSpaceOnUse" x1="40.2815" y1="46.2612" x2="80.2525" y2="81.0479" gradientTransform="matrix(1 0 0 -1 -11.3794 107.9482)">
				<stop  offset="0" style="stop-color:#1F1F1F"/>
				<stop  offset="1" style="stop-color:#C80000"/>
			</linearGradient>
			<path fill="url(#SVGID_14_)" d="M81.811,7.233c-7.217,0-14.097,1.438-20.372,4.041l2.466,6.281
				c2.279,5.491,4.311,11.232,6.662,16.652c2.393-0.629,4.904-0.964,7.493-0.964c2.676,0,5.268,0.359,7.73,1.028
				c0.477-0.555,0.945-1.117,1.407-1.685l9.535-13.053l5.896-8.072C96.235,8.739,89.199,7.233,81.811,7.233z"/>
		</g>
	</g>
	
		<linearGradient id="SVGID_15_" gradientUnits="userSpaceOnUse" x1="25.2258" y1="91.6104" x2="65.1942" y2="126.3947" gradientTransform="matrix(1 0 0 -1 0.0376 149.1143)">
		<stop  offset="0" style="stop-color:#1F1F1F"/>
		<stop  offset="1" style="stop-color:#C80000"/>
	</linearGradient>
	<path fill="url(#SVGID_15_)" d="M55.789,43.442c-0.551-0.694-3.497-2.786-4.149-3.323c-4.152-3.417-9.7-8.336-13.073-10.681
		c-3.281,4.567-5.857,9.677-7.567,15.167c6.58,2.405,12.956,5.011,19.689,7.26C51.912,48.765,53.647,45.922,55.789,43.442z"/>
	
		<linearGradient id="SVGID_16_" gradientUnits="userSpaceOnUse" x1="29.5129" y1="86.6855" x2="69.4819" y2="121.4704" gradientTransform="matrix(1 0 0 -1 0.0376 149.1143)">
		<stop  offset="0" style="stop-color:#1F1F1F"/>
		<stop  offset="1" style="stop-color:#C80000"/>
	</linearGradient>
	<path fill="url(#SVGID_16_)" d="M50.046,53.671c-6.661-2.195-13.135-4.58-19.669-6.901c-1.082,4.081-1.691,8.355-1.765,12.76
		c6.659,0.428,13.479,0.694,20.102,1.161C48.873,58.257,49.329,55.906,50.046,53.671z"/>
	
		<linearGradient id="SVGID_17_" gradientUnits="userSpaceOnUse" x1="34.6472" y1="80.7832" x2="74.6168" y2="115.5685" gradientTransform="matrix(1 0 0 -1 0.0376 149.1143)">
		<stop  offset="0" style="stop-color:#1F1F1F"/>
		<stop  offset="1" style="stop-color:#C80000"/>
	</linearGradient>
	<path fill="url(#SVGID_17_)" d="M48.645,62.657c0-0.046,0.001-0.092,0.001-0.138c-6.754-0.313-13.451-0.684-20.035-1.168
		c0.056,3.334,0.417,6.592,1.06,9.749c6.585-0.929,13.054-1.976,19.464-3.078C48.814,66.283,48.645,64.489,48.645,62.657z"/>
	
		<linearGradient id="SVGID_18_" gradientUnits="userSpaceOnUse" x1="39.0017" y1="75.7793" x2="78.9729" y2="110.566" gradientTransform="matrix(1 0 0 -1 0.0376 149.1143)">
		<stop  offset="0" style="stop-color:#1F1F1F"/>
		<stop  offset="1" style="stop-color:#C80000"/>
	</linearGradient>
	<path fill="url(#SVGID_18_)" d="M49.415,69.367c-6.402,1.264-12.729,2.604-19.307,3.693c0.495,2.035,1.106,4.024,1.829,5.959
		c6.107-2.359,12.315-4.617,18.15-7.25C49.83,70.983,49.604,70.181,49.415,69.367z"/>
	
		<linearGradient id="SVGID_19_" gradientUnits="userSpaceOnUse" x1="42.5046" y1="71.7549" x2="82.4759" y2="106.5418" gradientTransform="matrix(1 0 0 -1 0.0376 149.1143)">
		<stop  offset="0" style="stop-color:#1F1F1F"/>
		<stop  offset="1" style="stop-color:#C80000"/>
	</linearGradient>
	<path fill="url(#SVGID_19_)" d="M50.471,72.88c-5.781,2.831-12.094,5.129-17.779,8.052c0.541,1.295,1.131,2.563,1.768,3.805
		c5.806-3.113,11.101-6.732,16.792-9.956C50.969,74.158,50.711,73.524,50.471,72.88z"/>
	
		<linearGradient id="SVGID_20_" gradientUnits="userSpaceOnUse" x1="45.6018" y1="68.1963" x2="85.573" y2="102.9829" gradientTransform="matrix(1 0 0 -1 0.0376 149.1143)">
		<stop  offset="0" style="stop-color:#1F1F1F"/>
		<stop  offset="1" style="stop-color:#C80000"/>
	</linearGradient>
	<path fill="url(#SVGID_20_)" d="M51.774,75.869c-5.291,3.711-11.225,6.783-16.343,10.668c0.58,1.029,1.193,2.037,1.84,3.023
		c5.328-3.771,10.441-7.756,15.613-11.683C52.489,77.225,52.119,76.555,51.774,75.869z"/>
	
		<linearGradient id="SVGID_21_" gradientUnits="userSpaceOnUse" x1="48.3987" y1="64.9844" x2="88.3693" y2="99.7707" gradientTransform="matrix(1 0 0 -1 0.0376 149.1143)">
		<stop  offset="0" style="stop-color:#1F1F1F"/>
		<stop  offset="1" style="stop-color:#C80000"/>
	</linearGradient>
	<path fill="url(#SVGID_21_)" d="M51.789,83.277c0.536-0.422,2.321-1.789,3.16-2.467c-0.347-0.447-0.896-1.125-1.217-1.595
		c-1.101,0.738-2.339,1.597-3.607,2.548c-3.158,2.366-6.482,4.774-9.996,7.42c-0.796,0.6-1.439,1.088-1.968,1.541
		c0.279,0.397,0.563,0.944,0.853,1.336c0.433,0.532,0.307,0.381,0.659,0.784C42.658,90.168,47.968,86.301,51.789,83.277z"/>
	
		<linearGradient id="SVGID_22_" gradientUnits="userSpaceOnUse" x1="21.3987" y1="95.8105" x2="61.4658" y2="130.6808" gradientTransform="matrix(1 0 0 -1 0.0376 149.1143)">
		<stop  offset="0" style="stop-color:#1F1F1F"/>
		<stop  offset="1" style="stop-color:#C80000"/>
	</linearGradient>
	<path fill="url(#SVGID_22_)" d="M61.606,17.555l0.461,1.179c-0.146-0.393-0.291-0.784-0.435-1.179
		C61.624,17.555,61.614,17.555,61.606,17.555z"/>
	
		<linearGradient id="SVGID_23_" gradientUnits="userSpaceOnUse" x1="30.1575" y1="85.9648" x2="70.1169" y2="120.7412" gradientTransform="matrix(1 0 0 -1 0.0376 149.1143)">
		<stop  offset="0" style="stop-color:#1F1F1F"/>
		<stop  offset="1" style="stop-color:#C80000"/>
	</linearGradient>
	<path fill="url(#SVGID_23_)" d="M65.493,27.459l2.908,7.409c0.002-0.002,0.003-0.002,0.007-0.003
		C67.471,32.362,66.484,29.908,65.493,27.459z"/>
	
		<linearGradient id="SVGID_24_" gradientUnits="userSpaceOnUse" x1="31.6067" y1="82.1865" x2="72.7355" y2="117.9807" gradientTransform="matrix(1 0 0 -1 0.0376 149.1143)">
		<stop  offset="0" style="stop-color:#1F1F1F"/>
		<stop  offset="1" style="stop-color:#C80000"/>
	</linearGradient>
	<path fill="url(#SVGID_24_)" d="M68.448,34.97c-0.014-0.035-0.028-0.07-0.041-0.104c-0.003,0.001-0.005,0.001-0.007,0.003
		l0.041,0.104C68.444,34.972,68.446,34.97,68.448,34.97z"/>
	
		<linearGradient id="SVGID_25_" gradientUnits="userSpaceOnUse" x1="38.4001" y1="76.4707" x2="78.3716" y2="111.2576" gradientTransform="matrix(1 0 0 -1 0.0376 149.1143)">
		<stop  offset="0" style="stop-color:#1F1F1F"/>
		<stop  offset="1" style="stop-color:#C80000"/>
	</linearGradient>
	<path fill="url(#SVGID_25_)" d="M96.733,19.533l-9.535,13.053C90.577,28.437,93.628,23.958,96.733,19.533z"/>
</g>
<line fill="none" stroke="#D3D1D1" stroke-width="4" stroke-linecap="round" x1="162.592" y1="61.661" x2="162.592" y2="100.994"/>
<path d="M57.194,68.792l7.278-1.31c0.611,2.058,2.183,3.088,4.715,3.088c1.97,0,2.957-0.525,2.957-1.572
	c0-0.549-0.229-0.976-0.683-1.282c-0.456-0.306-1.271-0.577-2.442-0.813c-4.479-0.857-7.354-1.979-8.626-3.363
	c-1.272-1.386-1.908-3.014-1.908-4.886c0-2.407,0.914-4.411,2.742-6.008s4.456-2.396,7.886-2.396c5.202,0,8.637,2.09,10.309,6.268
	l-6.492,1.965c-0.675-1.709-2.038-2.563-4.099-2.563c-1.709,0-2.563,0.531-2.563,1.591c0,0.475,0.193,0.842,0.579,1.104
	c0.387,0.262,1.136,0.511,2.245,0.748c3.057,0.646,5.229,1.217,6.514,1.714c1.286,0.498,2.356,1.349,3.217,2.554
	c0.86,1.203,1.291,2.624,1.291,4.258c0,2.585-1.048,4.68-3.143,6.283c-2.097,1.604-4.848,2.405-8.252,2.405
	C62.495,76.574,58.653,73.981,57.194,68.792z"/>
<path d="M97.234,56.76v19.422h-7.427V56.76h-8.173v-6.118h23.772v6.118H97.234z"/>
<path d="M129.405,50.642v16.914c0,3.207-0.951,5.511-2.853,6.914c-1.902,1.405-4.382,2.104-7.438,2.104
	c-3.219,0-5.803-0.672-7.755-2.02c-1.953-1.348-2.929-3.542-2.929-6.586V50.642h7.213v16.41c0,1.223,0.258,2.113,0.772,2.674
	c0.519,0.563,1.34,0.844,2.473,0.844c0.946,0,1.72-0.204,2.322-0.609c0.604-0.405,0.966-0.863,1.082-1.375
	c0.119-0.512,0.179-1.51,0.179-2.993v-14.95L129.405,50.642L129.405,50.642z"/>
<path d="M133.596,76.182v-25.54h12.967c2.692,0,4.659,0.68,5.895,2.04c1.232,1.359,1.853,2.913,1.853,4.658
	c0,1.272-0.359,2.423-1.077,3.452c-0.715,1.029-1.787,1.738-3.208,2.125c3.304,0.797,4.958,2.781,4.958,5.948
	c0,1.897-0.584,3.591-1.75,5.081c-1.167,1.49-3.656,2.236-7.475,2.236H133.596L133.596,76.182z M140.819,60.429h3.631
	c0.91,0,1.554-0.232,1.927-0.694c0.374-0.46,0.563-0.954,0.563-1.478c0-1.422-0.874-2.133-2.62-2.133h-3.499L140.819,60.429
	L140.819,60.429z M140.819,70.495h3.818c0.945,0,1.643-0.234,2.086-0.702c0.442-0.469,0.663-0.994,0.663-1.581
	c0-0.586-0.216-1.126-0.646-1.618c-0.431-0.493-1.221-0.739-2.368-0.739h-3.555L140.819,70.495L140.819,70.495z"/>
<g>
	<path fill="#2D2D2D" d="M93.18,95.336l5.042-0.906c0.423,1.426,1.512,2.139,3.266,2.139c1.366,0,2.048-0.362,2.048-1.09
		c0-0.379-0.158-0.674-0.473-0.887c-0.316-0.213-0.88-0.4-1.692-0.563c-3.102-0.596-5.093-1.373-5.975-2.332
		c-0.88-0.959-1.321-2.088-1.321-3.383c0-1.67,0.633-3.058,1.899-4.162c1.266-1.105,3.086-1.658,5.462-1.658
		c3.604,0,5.982,1.445,7.141,4.34l-4.497,1.361c-0.467-1.185-1.413-1.775-2.839-1.775c-1.184,0-1.775,0.369-1.775,1.102
		c0,0.328,0.136,0.584,0.402,0.767c0.269,0.182,0.787,0.354,1.555,0.517c2.117,0.448,3.621,0.846,4.512,1.188
		c0.891,0.344,1.633,0.937,2.229,1.768c0.596,0.834,0.895,1.818,0.895,2.951c0,1.789-0.726,3.238-2.178,4.351
		c-1.451,1.111-3.355,1.668-5.715,1.668C96.853,100.729,94.192,98.932,93.18,95.336z"/>
	<path fill="#2D2D2D" d="M118.777,100.729c-2.487,0-4.516-0.826-6.084-2.477c-1.567-1.65-2.353-3.857-2.353-6.623
		c0-2.643,0.75-4.826,2.25-6.551c1.499-1.723,3.579-2.584,6.239-2.584c2.463,0,4.469,0.811,6.021,2.436
		c1.551,1.625,2.325,3.793,2.325,6.508c0,2.808-0.781,5.058-2.346,6.75C123.266,99.881,121.248,100.729,118.777,100.729z
		 M118.752,96.709c0.915,0,1.575-0.398,1.978-1.197c0.401-0.799,0.603-2.262,0.603-4.387c0-3.076-0.825-4.615-2.475-4.615
		c-1.78,0-2.67,1.756-2.67,5.264C116.185,95.064,117.04,96.709,118.752,96.709z"/>
	<path fill="#2D2D2D" d="M140.525,93.834h-5.769v6.623h-5.286V82.764h12.791v4.213h-7.505v2.879h5.769V93.834z"/>
	<path fill="#2D2D2D" d="M152.221,87.002v13.455h-5.146V87.002h-3.668v-4.238h12.48v4.238H152.221z"/>
</g>
<g>
	<g>
		
			<linearGradient id="SVGID_26_" gradientUnits="userSpaceOnUse" x1="184.1775" y1="81.9141" x2="278.7244" y2="81.9141" gradientTransform="matrix(1 0 0 1 -13.333 -2)">
			<stop  offset="0" style="stop-color:#1F1F1F"/>
			<stop  offset="1" style="stop-color:#C80000"/>
		</linearGradient>
		<path fill="url(#SVGID_26_)" d="M185.83,70.639c2.425,0,3.868,1.645,4.332,4.933l9.403-0.926c-0.68-3.521-2.17-6.238-4.471-8.153
			c-2.301-1.915-5.335-2.872-9.102-2.872c-5.02,0-8.798,1.61-11.338,4.83c-2.541,3.219-3.811,7.192-3.811,11.916
			c0,4.864,1.313,8.721,3.938,11.568c2.624,2.851,5.975,4.274,10.052,4.274c3.845,0,6.748-1.266,8.708-3.797
			c0.464,0.894,0.888,1.998,1.274,3.311h4.748v-17.72H185.32v6.718h5.235c-0.016,1.236-0.437,2.208-1.262,2.918
			c-0.826,0.712-1.826,1.064-3.001,1.064c-1.45,0-2.686-0.581-3.705-1.747c-1.019-1.166-1.528-3.578-1.528-7.238
			C181.059,73.665,182.649,70.639,185.83,70.639z M215.42,74.528l-5.542-10.421h-10.619l10.638,18.228v13.388h9.426V82.335
			l9.896-18.228h-8.486L215.42,74.528z M252.664,64.107l-4.377,16.792L243.7,64.107h-12.682v31.616h7.273V73.117l6.08,22.606h6.161
			l5.849-22.606v22.606h9.01V64.107H252.664z"/>
	</g>
</g>
</svg>
