<?xml version="1.0" encoding="utf-8"?>
<!-- Generator: Adobe Illustrator 13.0.0, SVG Export Plug-In . SVG Version: 6.00 Build 14948)  -->
<!DOCTYPE svg PUBLIC "-//W3C//DTD SVG 1.1//EN" "http://www.w3.org/Graphics/SVG/1.1/DTD/svg11.dtd">
<svg version="1.1" id="Calque_1" xmlns="http://www.w3.org/2000/svg" xmlns:xlink="http://www.w3.org/1999/xlink" x="0px" y="0px"
	 width="260px" height="70px" viewBox="0 0 260 70" enable-background="new 0 0 260 70" xml:space="preserve">
<g>
	<g>
		
			<linearGradient id="SVGID_1_" gradientUnits="userSpaceOnUse" x1="148.585" y1="-242.2124" x2="178.836" y2="-215.885" gradientTransform="matrix(1 0 0 -1 -147.5996 -201.7207)">
			<stop  offset="0" style="stop-color:#3A3A3A"/>
			<stop  offset="1" style="stop-color:#C80000"/>
		</linearGradient>
		<path fill="url(#SVGID_1_)" stroke="#FFFFFF" stroke-width="0.5" d="M31.765,18.136l-2.593-6.605
			C30,13.77,30.882,15.953,31.765,18.136z"/>
		
			<linearGradient id="SVGID_2_" gradientUnits="userSpaceOnUse" x1="159.915" y1="-255.1982" x2="190.1529" y2="-228.8824" gradientTransform="matrix(1 0 0 -1 -147.5996 -201.7207)">
			<stop  offset="0" style="stop-color:#3A3A3A"/>
			<stop  offset="1" style="stop-color:#C80000"/>
		</linearGradient>
		<path fill="url(#SVGID_2_)" stroke="#FFFFFF" stroke-width="0.5" d="M47.239,23.322l0.954-1.306
			c-0.35,0.431-0.705,0.856-1.064,1.275C47.164,23.302,47.203,23.311,47.239,23.322z"/>
		<g>
			<g>
				
					<linearGradient id="SVGID_3_" gradientUnits="userSpaceOnUse" x1="159.6797" y1="-283.0142" x2="189.9335" y2="-256.6844" gradientTransform="matrix(1 0 0 -1 -159.0176 -242.8867)">
					<stop  offset="0" style="stop-color:#3A3A3A"/>
					<stop  offset="1" style="stop-color:#C80000"/>
				</linearGradient>
				<path fill="url(#SVGID_3_)" stroke="#FFFFFF" stroke-width="0.5" d="M31.765,18.136c-0.882-2.184-1.765-4.366-2.593-6.605
					l-0.349-0.892l-1.611-4.103c-5.216,2.415-9.829,5.915-13.549,10.21c-0.43,0.496-0.849,1.003-1.254,1.521
					c4.171,3.794,8.714,7.214,12.974,10.921c2.379-2.424,5.307-4.307,8.583-5.446L31.765,18.136z"/>
			</g>
		</g>
		<g>
			<g>
				
					<linearGradient id="SVGID_4_" gradientUnits="userSpaceOnUse" x1="163.0869" y1="-286.9263" x2="193.3401" y2="-260.597" gradientTransform="matrix(1 0 0 -1 -159.0176 -242.8867)">
					<stop  offset="0" style="stop-color:#3A3A3A"/>
					<stop  offset="1" style="stop-color:#C80000"/>
				</linearGradient>
				<path fill="url(#SVGID_4_)" stroke="#FFFFFF" stroke-width="0.5" d="M44.116,2.826c-5.463,0-10.67,1.088-15.421,3.059
					l1.867,4.754c1.725,4.156,3.263,8.501,5.043,12.604c1.811-0.476,3.711-0.729,5.67-0.729c2.025,0,3.988,0.272,5.852,0.778
					c0.36-0.419,0.715-0.844,1.064-1.275l7.217-9.879l4.463-6.11C55.033,3.966,49.708,2.826,44.116,2.826z"/>
			</g>
		</g>
		
			<linearGradient id="SVGID_5_" gradientUnits="userSpaceOnUse" x1="148.916" y1="-242.5962" x2="179.1665" y2="-216.2693" gradientTransform="matrix(1 0 0 -1 -147.5996 -201.7207)">
			<stop  offset="0" style="stop-color:#3A3A3A"/>
			<stop  offset="1" style="stop-color:#C80000"/>
		</linearGradient>
		<path fill="url(#SVGID_5_)" stroke="#FFFFFF" stroke-width="0.5" d="M24.42,30.233c-0.418-0.526-2.647-2.11-3.142-2.516
			c-3.143-2.586-7.343-6.31-9.895-8.084c-2.483,3.458-4.434,7.325-5.727,11.48c4.98,1.821,9.805,3.792,14.901,5.496
			C21.485,34.262,22.798,32.109,24.42,30.233z"/>
		
			<linearGradient id="SVGID_6_" gradientUnits="userSpaceOnUse" x1="152.1592" y1="-246.3252" x2="182.4158" y2="-219.993" gradientTransform="matrix(1 0 0 -1 -147.5996 -201.7207)">
			<stop  offset="0" style="stop-color:#3A3A3A"/>
			<stop  offset="1" style="stop-color:#C80000"/>
		</linearGradient>
		<path fill="url(#SVGID_6_)" stroke="#FFFFFF" stroke-width="0.5" d="M20.073,37.976c-5.042-1.66-9.941-3.468-14.888-5.224
			c-0.819,3.089-1.282,6.325-1.336,9.658c5.041,0.324,10.203,0.525,15.216,0.878C19.186,41.447,19.531,39.667,20.073,37.976z"/>
		
			<linearGradient id="SVGID_7_" gradientUnits="userSpaceOnUse" x1="156.0479" y1="-250.792" x2="186.2961" y2="-224.4671" gradientTransform="matrix(1 0 0 -1 -147.5996 -201.7207)">
			<stop  offset="0" style="stop-color:#3A3A3A"/>
			<stop  offset="1" style="stop-color:#C80000"/>
		</linearGradient>
		<path fill="url(#SVGID_7_)" stroke="#FFFFFF" stroke-width="0.5" d="M19.013,44.776c0-0.033,0-0.068,0-0.104
			c-5.112-0.237-10.181-0.52-15.165-0.883c0.042,2.522,0.315,4.988,0.803,7.376c4.984-0.702,9.88-1.494,14.732-2.328
			C19.14,47.521,19.013,46.163,19.013,44.776z"/>
		
			<linearGradient id="SVGID_8_" gradientUnits="userSpaceOnUse" x1="159.3418" y1="-254.5796" x2="189.6006" y2="-228.2455" gradientTransform="matrix(1 0 0 -1 -147.5996 -201.7207)">
			<stop  offset="0" style="stop-color:#3A3A3A"/>
			<stop  offset="1" style="stop-color:#C80000"/>
		</linearGradient>
		<path fill="url(#SVGID_8_)" stroke="#FFFFFF" stroke-width="0.5" d="M19.596,49.855c-4.847,0.956-9.635,1.972-14.615,2.795
			c0.375,1.541,0.839,3.045,1.385,4.513c4.623-1.787,9.323-3.498,13.739-5.49C19.91,51.078,19.739,50.472,19.596,49.855z"/>
		
			<linearGradient id="SVGID_9_" gradientUnits="userSpaceOnUse" x1="161.9941" y1="-257.6245" x2="192.2448" y2="-231.2974" gradientTransform="matrix(1 0 0 -1 -147.5996 -201.7207)">
			<stop  offset="0" style="stop-color:#3A3A3A"/>
			<stop  offset="1" style="stop-color:#C80000"/>
		</linearGradient>
		<path fill="url(#SVGID_9_)" stroke="#FFFFFF" stroke-width="0.5" d="M20.395,52.516c-4.377,2.142-9.153,3.88-13.457,6.094
			c0.409,0.979,0.855,1.94,1.339,2.878c4.393-2.355,8.4-5.094,12.71-7.537C20.771,53.482,20.576,53.002,20.395,52.516z"/>
		
			<linearGradient id="SVGID_10_" gradientUnits="userSpaceOnUse" x1="164.3369" y1="-260.3188" x2="194.591" y2="-233.989" gradientTransform="matrix(1 0 0 -1 -147.5996 -201.7207)">
			<stop  offset="0" style="stop-color:#3A3A3A"/>
			<stop  offset="1" style="stop-color:#C80000"/>
		</linearGradient>
		<path fill="url(#SVGID_10_)" stroke="#FFFFFF" stroke-width="0.5" d="M21.381,54.777c-4.004,2.809-8.495,5.136-12.37,8.073
			c0.439,0.779,0.904,1.542,1.393,2.29c4.034-2.855,7.903-5.87,11.817-8.844C21.922,55.802,21.642,55.295,21.381,54.777z"/>
		
			<linearGradient id="SVGID_11_" gradientUnits="userSpaceOnUse" x1="166.4541" y1="-262.75" x2="196.709" y2="-236.4192" gradientTransform="matrix(1 0 0 -1 -147.5996 -201.7207)">
			<stop  offset="0" style="stop-color:#3A3A3A"/>
			<stop  offset="1" style="stop-color:#C80000"/>
		</linearGradient>
		<path fill="url(#SVGID_11_)" stroke="#FFFFFF" stroke-width="0.5" d="M21.393,60.384c0.405-0.319,1.756-1.353,2.392-1.868
			c-0.264-0.336-0.679-0.851-0.922-1.207c-0.832,0.56-1.771,1.208-2.729,1.929c-2.391,1.791-4.908,3.616-7.566,5.617
			c-0.604,0.453-1.09,0.825-1.49,1.167c0.211,0.301,0.426,0.714,0.644,1.011c0.329,0.402,0.233,0.288,0.501,0.595
			C14.481,65.6,18.5,62.673,21.393,60.384z"/>
		
			<linearGradient id="SVGID_12_" gradientUnits="userSpaceOnUse" x1="145.9209" y1="-239.502" x2="176.3438" y2="-213.025" gradientTransform="matrix(1 0 0 -1 -147.5996 -201.7207)">
			<stop  offset="0" style="stop-color:#3A3A3A"/>
			<stop  offset="1" style="stop-color:#C80000"/>
		</linearGradient>
		<path fill="url(#SVGID_12_)" stroke="#FFFFFF" stroke-width="0.5" d="M28.822,10.639l0.349,0.892
			c-0.109-0.297-0.22-0.593-0.328-0.892C28.837,10.639,28.829,10.639,28.822,10.639z"/>
		
			<linearGradient id="SVGID_13_" gradientUnits="userSpaceOnUse" x1="152.6289" y1="-246.8872" x2="182.8945" y2="-220.5473" gradientTransform="matrix(1 0 0 -1 -147.5996 -201.7207)">
			<stop  offset="0" style="stop-color:#3A3A3A"/>
			<stop  offset="1" style="stop-color:#C80000"/>
		</linearGradient>
		<path fill="url(#SVGID_13_)" stroke="#FFFFFF" stroke-width="0.5" d="M31.765,18.136l2.2,5.606
			c0.002-0.001,0.003-0.001,0.007-0.002C33.262,21.848,32.515,19.99,31.765,18.136z"/>
		
			<linearGradient id="SVGID_14_" gradientUnits="userSpaceOnUse" x1="152.6436" y1="-250.687" x2="185.0062" y2="-222.522" gradientTransform="matrix(1 0 0 -1 -147.5996 -201.7207)">
			<stop  offset="0" style="stop-color:#3A3A3A"/>
			<stop  offset="1" style="stop-color:#C80000"/>
		</linearGradient>
		<path fill="url(#SVGID_14_)" stroke="#FFFFFF" stroke-width="0.5" d="M34.001,23.82c-0.01-0.025-0.021-0.054-0.03-0.08
			c-0.003,0.001-0.004,0.001-0.007,0.002l0.032,0.08C33.998,23.823,34,23.82,34.001,23.82z"/>
		
			<linearGradient id="SVGID_15_" gradientUnits="userSpaceOnUse" x1="158.8887" y1="-254.0547" x2="189.1421" y2="-227.7253" gradientTransform="matrix(1 0 0 -1 -147.5996 -201.7207)">
			<stop  offset="0" style="stop-color:#3A3A3A"/>
			<stop  offset="1" style="stop-color:#C80000"/>
		</linearGradient>
		<path fill="url(#SVGID_15_)" stroke="#FFFFFF" stroke-width="0.5" d="M55.41,12.137l-7.217,9.879
			C50.751,18.876,53.061,15.486,55.41,12.137z"/>
	</g>
	<g>
		<path stroke="#FFFFFF" stroke-width="0.5" d="M30.826,43.628l3.942-0.708c0.332,1.114,1.183,1.672,2.555,1.672
			c1.067,0,1.602-0.285,1.602-0.853c0-0.297-0.124-0.527-0.37-0.693c-0.247-0.168-0.689-0.313-1.323-0.439
			c-2.426-0.467-3.983-1.074-4.673-1.823c-0.688-0.75-1.034-1.633-1.034-2.646c0-1.305,0.495-2.389,1.486-3.255
			c0.99-0.864,2.414-1.297,4.271-1.297c2.818,0,4.68,1.131,5.585,3.396l-3.518,1.064c-0.365-0.926-1.104-1.391-2.219-1.391
			c-0.926,0-1.389,0.291-1.389,0.863c0,0.259,0.105,0.458,0.314,0.6c0.209,0.14,0.615,0.276,1.217,0.403
			c1.654,0.352,2.832,0.66,3.528,0.93c0.696,0.269,1.277,0.731,1.743,1.384c0.466,0.651,0.699,1.421,0.699,2.306
			c0,1.401-0.568,2.535-1.703,3.402c-1.135,0.869-2.625,1.303-4.47,1.303C33.698,47.844,31.616,46.438,30.826,43.628z"/>
		<path stroke="#FFFFFF" stroke-width="0.5" d="M52.516,37.111v10.52h-4.023v-10.52h-4.427v-3.315h12.878v3.315H52.516z"/>
		<path stroke="#FFFFFF" stroke-width="0.5" d="M69.943,33.796v9.163c0,1.736-0.515,2.984-1.545,3.744
			c-1.031,0.763-2.374,1.141-4.028,1.141c-1.745,0-3.144-0.364-4.201-1.096c-1.059-0.73-1.587-1.918-1.587-3.566v-9.385h3.908v8.888
			c0,0.665,0.14,1.146,0.418,1.449c0.28,0.305,0.726,0.458,1.339,0.458c0.513,0,0.932-0.11,1.258-0.331
			c0.326-0.218,0.523-0.467,0.586-0.743c0.064-0.278,0.096-0.818,0.096-1.622v-8.099H69.943L69.943,33.796z"/>
		<path stroke="#FFFFFF" stroke-width="0.5" d="M72.214,47.631V33.796h7.023c1.46,0,2.525,0.369,3.193,1.104
			c0.667,0.736,1.004,1.58,1.004,2.525c0,0.688-0.195,1.312-0.583,1.869c-0.388,0.557-0.969,0.941-1.739,1.149
			c1.791,0.432,2.686,1.506,2.686,3.223c0,1.028-0.316,1.945-0.947,2.753c-0.632,0.807-1.98,1.211-4.05,1.211H72.214L72.214,47.631z
			 M76.126,39.098h1.967c0.492,0,0.842-0.125,1.044-0.376c0.202-0.25,0.304-0.516,0.304-0.8c0-0.771-0.474-1.157-1.42-1.157h-1.896
			V39.098L76.126,39.098z M76.126,44.552h2.068c0.513,0,0.891-0.128,1.13-0.382c0.24-0.254,0.359-0.539,0.359-0.855
			c0-0.319-0.116-0.61-0.35-0.877s-0.662-0.399-1.282-0.399h-1.927L76.126,44.552L76.126,44.552z"/>
	</g>
	<g>
		<path fill="#333333" stroke="#FFFFFF" stroke-width="0.5" d="M40.503,60.181l3.347-0.6C44.131,60.526,44.854,61,46.019,61
			c0.907,0,1.36-0.24,1.36-0.725c0-0.251-0.105-0.446-0.314-0.588c-0.209-0.142-0.584-0.267-1.123-0.373
			c-2.06-0.396-3.382-0.911-3.967-1.55c-0.584-0.636-0.877-1.386-0.877-2.245c0-1.107,0.42-2.029,1.261-2.763
			c0.841-0.734,2.049-1.103,3.626-1.103c2.393,0,3.973,0.96,4.742,2.882l-2.986,0.903c-0.31-0.785-0.938-1.178-1.885-1.178
			c-0.786,0-1.178,0.244-1.178,0.73c0,0.219,0.089,0.388,0.267,0.51c0.178,0.121,0.521,0.234,1.033,0.344
			c1.406,0.299,2.404,0.56,2.994,0.788c0.592,0.229,1.084,0.623,1.481,1.174c0.396,0.554,0.592,1.207,0.592,1.959
			c0,1.188-0.48,2.149-1.445,2.89c-0.963,0.738-2.228,1.106-3.794,1.106C42.941,63.761,41.174,62.568,40.503,60.181z"/>
		<path fill="#333333" stroke="#FFFFFF" stroke-width="0.5" d="M57.497,63.761c-1.65,0-2.998-0.547-4.04-1.643
			c-1.039-1.096-1.561-2.563-1.561-4.398c0-1.755,0.498-3.204,1.494-4.348c0.995-1.146,2.376-1.718,4.142-1.718
			c1.635,0,2.967,0.54,3.998,1.618c1.03,1.078,1.545,2.518,1.545,4.319c0,1.865-0.52,3.359-1.558,4.482
			C60.478,63.199,59.138,63.761,57.497,63.761z M57.481,61.092c0.607,0,1.046-0.263,1.312-0.794c0.268-0.53,0.401-1.501,0.401-2.913
			c0-2.042-0.548-3.064-1.644-3.064c-1.181,0-1.772,1.166-1.772,3.496C55.777,60.002,56.344,61.092,57.481,61.092z"/>
		<path fill="#333333" stroke="#FFFFFF" stroke-width="0.5" d="M71.937,59.185h-3.829v4.396h-3.511V51.834h8.492v2.798h-4.981v1.91
			h3.829V59.185z"/>
		<path fill="#333333" stroke="#FFFFFF" stroke-width="0.5" d="M80.693,54.648v8.932h-3.417v-8.932h-2.435v-2.814h8.285v2.814
			H80.693z"/>
	</g>
</g>
<line fill="none" stroke="#D3D1D1" stroke-width="3" stroke-linecap="round" x1="89.092" y1="32" x2="89.092" y2="65.994"/>
<g>
	
		<linearGradient id="SVGID_16_" gradientUnits="userSpaceOnUse" x1="243.6563" y1="-249.7886" x2="344.2094" y2="-251.6059" gradientTransform="matrix(1 0 0 -1 -147.5996 -201.7207)">
		<stop  offset="0" style="stop-color:#1F1F1F"/>
		<stop  offset="1" style="stop-color:#C80000"/>
	</linearGradient>
	<path fill="url(#SVGID_16_)" d="M114.751,52.027l8.777,0.529c-0.41,3.834-1.828,6.777-4.251,8.822
		c-2.422,2.047-5.396,3.07-8.928,3.07c-4.246,0-7.677-1.404-10.29-4.217c-2.61-2.811-3.919-6.692-3.919-11.643
		c0-4.906,1.238-8.861,3.714-11.873c2.477-3.009,5.929-4.515,10.358-4.515c4.142,0,7.322,1.146,9.544,3.438
		c2.225,2.291,3.479,5.332,3.771,9.121l-8.961,0.48c0-2.092-0.4-3.605-1.204-4.537c-0.803-0.932-1.744-1.398-2.83-1.398
		c-3.023,0-4.537,3.041-4.537,9.123c0,3.408,0.394,5.721,1.182,6.943c0.786,1.223,1.892,1.834,3.313,1.834
		C113.026,57.209,114.446,55.482,114.751,52.027z"/>
	
		<linearGradient id="SVGID_17_" gradientUnits="userSpaceOnUse" x1="243.6631" y1="-249.3389" x2="344.2185" y2="-251.1561" gradientTransform="matrix(1 0 0 -1 -147.5996 -201.7207)">
		<stop  offset="0" style="stop-color:#1F1F1F"/>
		<stop  offset="1" style="stop-color:#C80000"/>
	</linearGradient>
	<path fill="url(#SVGID_17_)" d="M154.882,63.971h-10.646l-4.567-11.965h-3.028v11.965h-9.603V32.686h16.341
		c3.605,0,6.406,0.846,8.398,2.533c1.993,1.688,2.991,3.915,2.991,6.68c0,1.803-0.367,3.396-1.101,4.779
		c-0.734,1.383-2.215,2.602-4.446,3.654L154.882,63.971z M136.639,45.314h4.103c1.207,0,2.177-0.254,2.912-0.758
		c0.732-0.502,1.101-1.244,1.101-2.223c0-2.001-1.23-3.002-3.689-3.002h-4.425L136.639,45.314L136.639,45.314z"/>
	
		<linearGradient id="SVGID_18_" gradientUnits="userSpaceOnUse" x1="243.6816" y1="-248.5967" x2="344.2291" y2="-250.4138" gradientTransform="matrix(1 0 0 -1 -147.5996 -201.7207)">
		<stop  offset="0" style="stop-color:#1F1F1F"/>
		<stop  offset="1" style="stop-color:#C80000"/>
	</linearGradient>
	<path fill="url(#SVGID_18_)" d="M193.431,32.686v31.285h-8.914V41.6l-5.788,22.371h-6.097L166.615,41.6v22.371h-7.194V32.686
		h12.546l4.539,16.617l4.332-16.617H193.431L193.431,32.686z"/>
</g>
</svg>
