<?xml version="1.0" encoding="utf-8"?>
<!-- Generator: Adobe Illustrator 13.0.0, SVG Export Plug-In . SVG Version: 6.00 Build 14948)  -->
<!DOCTYPE svg PUBLIC "-//W3C//DTD SVG 1.1//EN" "http://www.w3.org/Graphics/SVG/1.1/DTD/svg11.dtd">
<svg version="1.1" id="Calque_1" xmlns="http://www.w3.org/2000/svg" xmlns:xlink="http://www.w3.org/1999/xlink" x="0px" y="0px"
	 width="260px" height="70px" viewBox="0 0 260 70" enable-background="new 0 0 260 70" xml:space="preserve">
<g>
	<g>
		
			<linearGradient id="SVGID_1_" gradientUnits="userSpaceOnUse" x1="149.1699" y1="-240.936" x2="173.1771" y2="-220.0426" gradientTransform="matrix(1 0 0 -1 -147.5996 -201.7207)">
			<stop  offset="0" style="stop-color:#3A3A3A"/>
			<stop  offset="1" style="stop-color:#C80000"/>
		</linearGradient>
		<path fill="url(#SVGID_1_)" stroke="#FFFFFF" stroke-width="0.5" d="M25.997,21.473l-2.058-5.24
			C24.597,18.009,25.296,19.74,25.997,21.473z"/>
		
			<linearGradient id="SVGID_2_" gradientUnits="userSpaceOnUse" x1="158.167" y1="-251.231" x2="182.1556" y2="-230.3538" gradientTransform="matrix(1 0 0 -1 -147.5996 -201.7207)">
			<stop  offset="0" style="stop-color:#3A3A3A"/>
			<stop  offset="1" style="stop-color:#C80000"/>
		</linearGradient>
		<path fill="url(#SVGID_2_)" stroke="#FFFFFF" stroke-width="0.5" d="M38.273,25.587l0.757-1.036
			c-0.277,0.342-0.56,0.679-0.845,1.012C38.214,25.571,38.245,25.578,38.273,25.587z"/>
		<g>
			<g>
				
					<linearGradient id="SVGID_3_" gradientUnits="userSpaceOnUse" x1="160.3369" y1="-281.8076" x2="184.3399" y2="-260.918" gradientTransform="matrix(1 0 0 -1 -159.0176 -242.8867)">
					<stop  offset="0" style="stop-color:#3A3A3A"/>
					<stop  offset="1" style="stop-color:#C80000"/>
				</linearGradient>
				<path fill="url(#SVGID_3_)" stroke="#FFFFFF" stroke-width="0.5" d="M25.997,21.473c-0.7-1.732-1.4-3.464-2.058-5.24
					l-0.277-0.708l-1.278-3.255c-4.138,1.916-7.798,4.692-10.75,8.101c-0.341,0.394-0.674,0.796-0.995,1.207
					c3.31,3.01,6.914,5.724,10.293,8.664c1.888-1.923,4.21-3.417,6.81-4.32L25.997,21.473z"/>
			</g>
		</g>
		<g>
			<g>
				
					<linearGradient id="SVGID_4_" gradientUnits="userSpaceOnUse" x1="163.042" y1="-284.9106" x2="187.0437" y2="-264.022" gradientTransform="matrix(1 0 0 -1 -159.0176 -242.8867)">
					<stop  offset="0" style="stop-color:#3A3A3A"/>
					<stop  offset="1" style="stop-color:#C80000"/>
				</linearGradient>
				<path fill="url(#SVGID_4_)" stroke="#FFFFFF" stroke-width="0.5" d="M35.796,9.326c-4.334,0-8.465,0.863-12.234,2.427
					l1.481,3.771c1.369,3.297,2.589,6.745,4.001,10c1.437-0.378,2.945-0.579,4.499-0.579c1.607,0,3.164,0.216,4.643,0.617
					c0.286-0.333,0.567-0.67,0.845-1.012l5.726-7.838l3.541-4.848C44.457,10.23,40.232,9.326,35.796,9.326z"/>
			</g>
		</g>
		
			<linearGradient id="SVGID_5_" gradientUnits="userSpaceOnUse" x1="149.4385" y1="-241.2349" x2="173.4404" y2="-220.3461" gradientTransform="matrix(1 0 0 -1 -147.5996 -201.7207)">
			<stop  offset="0" style="stop-color:#3A3A3A"/>
			<stop  offset="1" style="stop-color:#C80000"/>
		</linearGradient>
		<path fill="url(#SVGID_5_)" stroke="#FFFFFF" stroke-width="0.5" d="M20.17,31.07c-0.332-0.417-2.101-1.674-2.493-1.996
			c-2.493-2.052-5.825-5.006-7.85-6.414c-1.97,2.743-3.517,5.812-4.543,9.108c3.951,1.444,7.779,3.009,11.822,4.36
			C17.841,34.267,18.883,32.559,20.17,31.07z"/>
		
			<linearGradient id="SVGID_6_" gradientUnits="userSpaceOnUse" x1="152.0127" y1="-244.1924" x2="176.0167" y2="-223.3018" gradientTransform="matrix(1 0 0 -1 -147.5996 -201.7207)">
			<stop  offset="0" style="stop-color:#3A3A3A"/>
			<stop  offset="1" style="stop-color:#C80000"/>
		</linearGradient>
		<path fill="url(#SVGID_6_)" stroke="#FFFFFF" stroke-width="0.5" d="M16.721,37.213c-4-1.317-7.887-2.751-11.812-4.145
			c-0.65,2.451-1.017,5.019-1.06,7.663c3.999,0.257,8.095,0.416,12.072,0.696C16.017,39.967,16.291,38.555,16.721,37.213z"/>
		
			<linearGradient id="SVGID_7_" gradientUnits="userSpaceOnUse" x1="155.0967" y1="-247.7363" x2="179.0949" y2="-226.8508" gradientTransform="matrix(1 0 0 -1 -147.5996 -201.7207)">
			<stop  offset="0" style="stop-color:#3A3A3A"/>
			<stop  offset="1" style="stop-color:#C80000"/>
		</linearGradient>
		<path fill="url(#SVGID_7_)" stroke="#FFFFFF" stroke-width="0.5" d="M15.879,42.608c0-0.026,0-0.055,0-0.082
			c-4.056-0.188-8.078-0.412-12.031-0.701c0.034,2.002,0.25,3.958,0.637,5.853c3.954-0.557,7.839-1.186,11.688-1.847
			C15.98,44.785,15.879,43.709,15.879,42.608z"/>
		
			<linearGradient id="SVGID_8_" gradientUnits="userSpaceOnUse" x1="157.7119" y1="-250.7407" x2="181.7198" y2="-229.8468" gradientTransform="matrix(1 0 0 -1 -147.5996 -201.7207)">
			<stop  offset="0" style="stop-color:#3A3A3A"/>
			<stop  offset="1" style="stop-color:#C80000"/>
		</linearGradient>
		<path fill="url(#SVGID_8_)" stroke="#FFFFFF" stroke-width="0.5" d="M16.342,46.638c-3.845,0.759-7.645,1.564-11.595,2.218
			c0.298,1.223,0.666,2.416,1.099,3.58c3.667-1.418,7.396-2.775,10.9-4.355C16.591,47.608,16.456,47.127,16.342,46.638z"/>
		
			<linearGradient id="SVGID_9_" gradientUnits="userSpaceOnUse" x1="159.8145" y1="-253.1577" x2="183.8173" y2="-232.2681" gradientTransform="matrix(1 0 0 -1 -147.5996 -201.7207)">
			<stop  offset="0" style="stop-color:#3A3A3A"/>
			<stop  offset="1" style="stop-color:#C80000"/>
		</linearGradient>
		<path fill="url(#SVGID_9_)" stroke="#FFFFFF" stroke-width="0.5" d="M16.976,48.748c-3.473,1.699-7.262,3.079-10.677,4.835
			c0.325,0.776,0.679,1.54,1.063,2.284c3.485-1.869,6.665-4.042,10.083-5.98C17.275,49.516,17.12,49.134,16.976,48.748z"/>
		
			<linearGradient id="SVGID_10_" gradientUnits="userSpaceOnUse" x1="161.6738" y1="-255.2949" x2="185.6757" y2="-234.4063" gradientTransform="matrix(1 0 0 -1 -147.5996 -201.7207)">
			<stop  offset="0" style="stop-color:#3A3A3A"/>
			<stop  offset="1" style="stop-color:#C80000"/>
		</linearGradient>
		<path fill="url(#SVGID_10_)" stroke="#FFFFFF" stroke-width="0.5" d="M17.758,50.543c-3.177,2.228-6.74,4.074-9.814,6.405
			c0.348,0.618,0.717,1.223,1.105,1.816c3.2-2.265,6.27-4.657,9.376-7.016C18.188,51.356,17.965,50.954,17.758,50.543z"/>
		
			<linearGradient id="SVGID_11_" gradientUnits="userSpaceOnUse" x1="163.3535" y1="-257.2236" x2="187.3562" y2="-236.3341" gradientTransform="matrix(1 0 0 -1 -147.5996 -201.7207)">
			<stop  offset="0" style="stop-color:#3A3A3A"/>
			<stop  offset="1" style="stop-color:#C80000"/>
		</linearGradient>
		<path fill="url(#SVGID_11_)" stroke="#FFFFFF" stroke-width="0.5" d="M17.768,54.991c0.322-0.253,1.393-1.073,1.898-1.482
			c-0.209-0.267-0.539-0.675-0.731-0.957c-0.66,0.443-1.405,0.958-2.166,1.53c-1.896,1.421-3.894,2.868-6.002,4.456
			c-0.479,0.359-0.865,0.654-1.183,0.926c0.168,0.238,0.338,0.566,0.511,0.802c0.261,0.319,0.185,0.229,0.397,0.472
			C12.284,59.129,15.473,56.808,17.768,54.991z"/>
		
			<linearGradient id="SVGID_12_" gradientUnits="userSpaceOnUse" x1="147.0898" y1="-238.7563" x2="171.2002" y2="-217.7732" gradientTransform="matrix(1 0 0 -1 -147.5996 -201.7207)">
			<stop  offset="0" style="stop-color:#3A3A3A"/>
			<stop  offset="1" style="stop-color:#C80000"/>
		</linearGradient>
		<path fill="url(#SVGID_12_)" stroke="#FFFFFF" stroke-width="0.5" d="M23.662,15.524l0.277,0.708
			c-0.087-0.236-0.174-0.471-0.26-0.708C23.674,15.524,23.667,15.524,23.662,15.524z"/>
		
			<linearGradient id="SVGID_13_" gradientUnits="userSpaceOnUse" x1="152.4023" y1="-244.6235" x2="176.3955" y2="-223.7424" gradientTransform="matrix(1 0 0 -1 -147.5996 -201.7207)">
			<stop  offset="0" style="stop-color:#3A3A3A"/>
			<stop  offset="1" style="stop-color:#C80000"/>
		</linearGradient>
		<path fill="url(#SVGID_13_)" stroke="#FFFFFF" stroke-width="0.5" d="M25.997,21.473l1.746,4.448
			c0.002-0.001,0.002-0.001,0.005-0.002C27.185,24.417,26.591,22.943,25.997,21.473z"/>
		
			<linearGradient id="SVGID_14_" gradientUnits="userSpaceOnUse" x1="153.4561" y1="-246.7314" x2="177.9467" y2="-225.4174" gradientTransform="matrix(1 0 0 -1 -147.5996 -201.7207)">
			<stop  offset="0" style="stop-color:#3A3A3A"/>
			<stop  offset="1" style="stop-color:#C80000"/>
		</linearGradient>
		<path fill="url(#SVGID_14_)" stroke="#FFFFFF" stroke-width="0.5" d="M27.771,25.982c-0.008-0.021-0.017-0.043-0.024-0.063
			c-0.002,0.001-0.003,0.001-0.005,0.002l0.025,0.063C27.768,25.984,27.77,25.982,27.771,25.982z"/>
		
			<linearGradient id="SVGID_15_" gradientUnits="userSpaceOnUse" x1="157.3506" y1="-250.3257" x2="181.3532" y2="-229.4363" gradientTransform="matrix(1 0 0 -1 -147.5996 -201.7207)">
			<stop  offset="0" style="stop-color:#3A3A3A"/>
			<stop  offset="1" style="stop-color:#C80000"/>
		</linearGradient>
		<path fill="url(#SVGID_15_)" stroke="#FFFFFF" stroke-width="0.5" d="M44.756,16.713l-5.726,7.838
			C41.06,22.06,42.892,19.37,44.756,16.713z"/>
	</g>
	<g>
		<path stroke="#FFFFFF" stroke-width="0.5" d="M25.252,41.697l3.128-0.562c0.263,0.884,0.938,1.326,2.026,1.326
			c0.847,0,1.271-0.227,1.271-0.676c0-0.236-0.098-0.419-0.293-0.551c-0.195-0.133-0.546-0.248-1.049-0.349
			c-1.925-0.37-3.16-0.853-3.708-1.446c-0.546-0.596-0.82-1.296-0.82-2.1c0-1.035,0.393-1.896,1.179-2.583
			c0.786-0.686,1.915-1.029,3.389-1.029c2.236,0,3.712,0.897,4.431,2.694l-2.791,0.844c-0.29-0.734-0.876-1.103-1.761-1.103
			c-0.735,0-1.102,0.23-1.102,0.685c0,0.205,0.083,0.363,0.249,0.476c0.166,0.111,0.488,0.22,0.965,0.32
			c1.313,0.278,2.247,0.523,2.799,0.737s1.014,0.58,1.383,1.098c0.37,0.517,0.555,1.128,0.555,1.829c0,1.112-0.451,2.012-1.351,2.7
			c-0.9,0.689-2.083,1.033-3.546,1.033C27.53,45.042,25.879,43.927,25.252,41.697z"/>
		<path stroke="#FFFFFF" stroke-width="0.5" d="M42.46,36.527v8.346h-3.192v-8.346h-3.512v-2.63h10.217v2.63H42.46z"/>
		<path stroke="#FFFFFF" stroke-width="0.5" d="M56.286,33.897v7.27c0,1.377-0.408,2.367-1.226,2.97
			c-0.818,0.605-1.883,0.905-3.196,0.905c-1.384,0-2.494-0.289-3.333-0.869c-0.839-0.579-1.259-1.521-1.259-2.829v-7.446h3.1v7.052
			c0,0.527,0.111,0.909,0.332,1.149c0.223,0.242,0.576,0.363,1.063,0.363c0.407,0,0.739-0.088,0.999-0.263
			c0.259-0.173,0.415-0.37,0.465-0.59c0.051-0.221,0.077-0.649,0.077-1.286v-6.426H56.286L56.286,33.897z"/>
		<path stroke="#FFFFFF" stroke-width="0.5" d="M58.088,44.873V33.897h5.572c1.158,0,2.003,0.292,2.534,0.876
			c0.529,0.584,0.796,1.253,0.796,2.003c0,0.546-0.154,1.041-0.463,1.483c-0.307,0.441-0.769,0.746-1.379,0.912
			c1.42,0.343,2.13,1.194,2.13,2.557c0,0.815-0.251,1.543-0.751,2.184c-0.501,0.64-1.571,0.961-3.213,0.961H58.088L58.088,44.873z
			 M61.192,38.104h1.561c0.391,0,0.668-0.1,0.829-0.299c0.16-0.198,0.241-0.409,0.241-0.635c0-0.611-0.376-0.918-1.126-0.918h-1.504
			V38.104L61.192,38.104z M61.192,42.43h1.641c0.407,0,0.707-0.102,0.896-0.303c0.191-0.201,0.285-0.427,0.285-0.679
			c0-0.253-0.092-0.483-0.277-0.695c-0.186-0.211-0.525-0.317-1.017-0.317h-1.528L61.192,42.43L61.192,42.43z"/>
	</g>
	<g>
		<path fill="#333333" stroke="#FFFFFF" stroke-width="0.5" d="M32.929,54.83l2.655-0.477c0.223,0.75,0.796,1.127,1.721,1.127
			c0.72,0,1.079-0.191,1.079-0.575c0-0.199-0.083-0.354-0.25-0.467s-0.463-0.211-0.891-0.296c-1.634-0.314-2.683-0.724-3.147-1.229
			c-0.464-0.505-0.696-1.1-0.696-1.781c0-0.879,0.333-1.61,1-2.192c0.667-0.582,1.625-0.874,2.877-0.874
			c1.898,0,3.152,0.762,3.762,2.286l-2.369,0.717c-0.246-0.623-0.744-0.935-1.495-0.935c-0.624,0-0.935,0.194-0.935,0.58
			c0,0.173,0.07,0.308,0.211,0.403c0.141,0.097,0.414,0.187,0.819,0.273c1.115,0.236,1.907,0.444,2.375,0.625
			c0.47,0.182,0.86,0.494,1.175,0.932c0.314,0.439,0.47,0.958,0.47,1.554c0,0.943-0.381,1.706-1.146,2.293
			c-0.765,0.586-1.768,0.878-3.01,0.878C34.864,57.67,33.462,56.725,32.929,54.83z"/>
		<path fill="#333333" stroke="#FFFFFF" stroke-width="0.5" d="M46.412,57.67c-1.31,0-2.378-0.434-3.205-1.303
			c-0.824-0.87-1.238-2.033-1.238-3.489c0-1.393,0.395-2.542,1.186-3.45c0.79-0.908,1.885-1.362,3.286-1.362
			c1.297,0,2.354,0.428,3.171,1.283c0.817,0.856,1.226,1.998,1.226,3.428c0,1.479-0.413,2.665-1.236,3.556
			C48.777,57.225,47.714,57.67,46.412,57.67z M46.399,55.553c0.482,0,0.83-0.209,1.041-0.63c0.212-0.421,0.318-1.19,0.318-2.312
			c0-1.619-0.435-2.431-1.304-2.431c-0.937,0-1.406,0.925-1.406,2.773C45.047,54.688,45.498,55.553,46.399,55.553z"/>
		<path fill="#333333" stroke="#FFFFFF" stroke-width="0.5" d="M57.868,54.039H54.83v3.488h-2.785v-9.319h6.737v2.22H54.83v1.516
			h3.038V54.039z"/>
		<path fill="#333333" stroke="#FFFFFF" stroke-width="0.5" d="M64.815,50.44v7.087h-2.71V50.44h-1.932v-2.232h6.573v2.232H64.815z"
			/>
	</g>
</g>
</svg>
